<?xml version="1.0" encoding="utf-8"?>
<!-- Generator: Adobe Illustrator 24.1.2, SVG Export Plug-In . SVG Version: 6.00 Build 0)  -->
<svg version="1.1" id="Layer_1" xmlns="http://www.w3.org/2000/svg" xmlns:xlink="http://www.w3.org/1999/xlink" x="0px" y="0px"
	 viewBox="0 0 480.5 480.5" style="enable-background:new 0 0 480.5 480.5;" xml:space="preserve">
<style type="text/css">
	.st0{fill:#676767;}
	.st1{fill:#ED1C24;}
	.st2{fill:none;}
	.st3{fill:#FFFFFF;stroke:#000000;stroke-miterlimit:10;}
</style>
<circle cx="240.3" cy="240.3" r="240.3"/>
<path id="path3426" class="st0" d="M75.8,411.8c-0.3,0-0.8,0-1.2,0l-0.6,0l-0.8-0.3l-0.8-0.3l-0.8-0.6l-0.8-0.6l-0.5-0.7l-0.5-0.7
	l-0.3-0.8l-0.3-0.8l-0.1-0.8l-0.1-0.8l0.1-1l0.1-1l0.3-0.8l0.3-0.8l0.5-0.7l0.5-0.7l0.7-0.5l0.7-0.5l0.7-0.3
	c0.4-0.2,0.7-0.3,0.8-0.3l0.1,0v-48.5v-48.5l-0.8-0.3l-0.8-0.3l-0.7-0.5l-0.7-0.5l-0.5-0.7l-0.5-0.7l-0.3-0.8l-0.3-0.8l-0.1-0.9
	l-0.1-0.9l0.1-0.8l0.1-0.8l0.3-0.8l0.3-0.8l0.6-0.7l0.6-0.7l0.7-0.5l0.7-0.5l0.8-0.3l0.8-0.3v-48.5V192l-0.8-0.3l-0.8-0.3l-0.7-0.5
	l-0.7-0.5l-0.5-0.7l-0.5-0.7l-0.3-0.8l-0.3-0.8l-0.1-0.9l-0.1-0.9l0.1-0.8l0.1-0.8l0.3-0.8l0.3-0.8l0.5-0.7l0.5-0.7l0.7-0.5l0.7-0.5
	l0.8-0.3l0.8-0.3l0-0.1c0-0.1,0-21.9,0-48.5l0-48.4l-0.8-0.3l-0.8-0.3L71.6,81l-0.7-0.5l-0.5-0.7l-0.5-0.7l-0.3-0.8l-0.3-0.8
	l-0.1-0.9L69,75.6l0.1-0.9l0.1-0.9l0.3-0.8l0.3-0.8l0.5-0.7l0.5-0.7l0.8-0.5l0.8-0.5l0.8-0.3l0.8-0.3l0.6-0.1l0.6-0.1l0.8,0.1
	l0.8,0.1l0.9,0.4l0.9,0.4l0.7,0.6l0.7,0.6l0.5,0.7l0.5,0.7l0.3,0.8l0.3,0.8l48.5,0l48.5,0l0.4-0.9l0.4-0.9l0.5-0.7l0.5-0.7l0.7-0.5
	l0.7-0.5l0.8-0.3l0.8-0.3l0.5-0.1c0.3,0,0.7-0.1,1-0.1s0.7,0,1,0.1l0.5,0.1l0.8,0.3l0.8,0.3l0.7,0.6l0.7,0.6l0.5,0.7l0.5,0.7
	l0.3,0.8l0.3,0.8l48.5,0l48.5,0l0.4-0.9l0.4-0.9l0.5-0.7l0.5-0.7l0.7-0.5L292,70l1-0.4l1-0.4h1.3h1.3l0.9,0.4l0.9,0.4l0.6,0.5
	l0.6,0.5l0.5,0.7l0.5,0.7l0.4,0.9l0.4,0.9l48.5,0l48.5,0l0.3-0.8l0.3-0.8l0.5-0.7l0.5-0.7l0.8-0.6l0.8-0.6l0.8-0.3l0.8-0.3l0.5-0.1
	l0.5-0.1h0.8h0.8l0.4,0.1c0.2,0.1,0.7,0.2,1,0.3l0.6,0.2l0.7,0.5l0.7,0.5l0.5,0.7l0.5,0.7l0.3,0.8l0.3,0.8l0.1,0.8l0.1,0.8l-0.1,1
	l-0.1,1l-0.3,0.8l-0.3,0.8l-0.5,0.6l-0.5,0.6l-0.4,0.3c-0.2,0.2-0.6,0.4-0.8,0.6l-0.4,0.3l-0.7,0.3l-0.7,0.3l0,48.5l0,48.5l0.8,0.3
	l0.8,0.3l0.6,0.5l0.6,0.5l0.5,0.7l0.5,0.7l0.3,0.7l0.3,0.7l0.1,0.9l0.1,0.9l-0.1,0.9l-0.1,0.9l-0.3,0.8l-0.3,0.8l-0.5,0.7l-0.5,0.7
	l-0.7,0.5l-0.7,0.5l-0.8,0.3l-0.8,0.3l0,48.5c0,26.7,0,48.5,0,48.5l0,0.1l0.8,0.3l0.8,0.3l0.6,0.4c0.3,0.2,0.6,0.5,0.7,0.6
	c0.1,0.1,0.4,0.4,0.6,0.8l0.5,0.6l0.4,0.8l0.4,0.8l0.1,0.9l0.1,0.9l-0.1,0.8l-0.1,0.8l-0.3,0.8l-0.3,0.8l-0.5,0.7l-0.5,0.7l-0.7,0.5
	l-0.7,0.5l-0.9,0.3l-0.9,0.3v48.5v48.5l0.8,0.3l0.8,0.3l0.7,0.5l0.7,0.5l0.5,0.7l0.5,0.7l0.3,0.8l0.3,0.8l0.1,0.9l0.1,0.9l-0.1,0.8
	l-0.1,0.8l-0.3,0.8l-0.3,0.8l-0.5,0.6l-0.5,0.6l-0.8,0.6l-0.8,0.6l-0.9,0.4l-0.9,0.3l-0.9,0l-0.9,0l-0.5-0.1l-0.5-0.1l-0.8-0.3
	l-0.8-0.3l-0.7-0.6l-0.7-0.6l-0.5-0.7l-0.5-0.7l-0.4-0.8l-0.4-0.8H350h-48.5l-0.1,0.2c0,0.1-0.2,0.5-0.4,1l-0.3,0.8l-0.5,0.6
	l-0.5,0.6l-0.6,0.5c-0.3,0.2-0.7,0.5-0.9,0.6c-0.1,0.1-0.6,0.3-1,0.4l-0.8,0.3l-0.8,0l-0.8,0l-0.5-0.1l-0.5-0.1l-0.9-0.3l-0.9-0.3
	l-0.7-0.6l-0.7-0.6l-0.5-0.7l-0.5-0.7l-0.3-0.8l-0.3-0.8l-48.5,0l-48.5,0l-0.3,0.8l-0.3,0.8l-0.6,0.7l-0.6,0.7l-0.7,0.5l-0.7,0.5
	l-0.9,0.3l-0.9,0.3l-0.6,0.1l-0.6,0.1l-0.7,0l-0.7,0l-0.3-0.1c-0.2,0-0.6-0.2-1-0.4l-0.7-0.3l-0.7-0.5l-0.7-0.5l-0.5-0.6l-0.5-0.6
	l-0.4-0.9l-0.4-0.9h-48.5H82l-0.3,0.8l-0.3,0.8l-0.5,0.7l-0.5,0.7l-0.8,0.6l-0.8,0.6l-0.8,0.3l-0.8,0.3l-0.4,0.1
	C76.6,411.7,76.2,411.8,75.8,411.8L75.8,411.8z M130.6,403.6H179l0.3-0.8l0.3-0.8l0.5-0.7l0.5-0.7l0.7-0.6l0.7-0.6l0.8-0.3l0.8-0.3
	v-16.3v-16.3l-31.5,0l-31.5,0l-0.2,0.6l-0.2,0.6l-0.4,0.5l-0.4,0.5l-0.5,0.4l-0.5,0.4l-0.6,0.3l-0.6,0.3l-0.6,0.1l-0.6,0.1l-0.6,0
	l-0.5,0l-0.7-0.3l-0.7-0.3l-16,16.2l-16,16.2l0,0.1c0,0.1,0.2,0.4,0.3,0.8c0.2,0.4,0.3,0.8,0.3,0.8l0,0.1H130.6L130.6,403.6z
	 M240.3,403.6l48.5,0l0.4-0.9l0.4-0.9l0.5-0.7l0.5-0.7l0.5-0.4l0.5-0.4l0-0.1c0-0.1-2-6.3-4.3-13.8c-2.4-7.5-4.5-14.2-4.6-14.7
	l-0.3-1l-0.7,0l-0.7,0l-0.7-0.3l-0.7-0.3l-0.6-0.4l-0.6-0.4l-0.4-0.5l-0.4-0.5l-0.3-0.6l-0.3-0.6l-36.7,0l-36.7,0l-0.3,0.7l-0.3,0.7
	l-0.4,0.5l-0.4,0.5l-0.6,0.4l-0.6,0.4l-0.6,0.2l-0.6,0.2l-0.8,0.1l-0.8,0.1l-4.8,14.8c-2.7,8.1-4.8,14.8-4.8,14.9v0.1l0.5,0.4
	l0.5,0.4l0.5,0.6l0.5,0.6l0.3,0.7c0.2,0.4,0.4,0.8,0.4,1l0.1,0.2L240.3,403.6L240.3,403.6z M350,403.6h48.5v-0.1
	c0-0.1,0.2-0.5,0.4-0.9l0.4-0.8l-14.7-15.1c-8.1-8.3-15.2-15.6-15.8-16.2l-1.1-1.1l-0.7,0.3l-0.7,0.3h-1.1h-1.1l-0.7-0.3l-0.7-0.3
	l-0.5-0.4l-0.5-0.4l-0.4-0.5l-0.4-0.5l-0.3-0.7l-0.3-0.7l-31.8,0l-31.8,0l0,16.3l0,16.3l0.1,0.1l0.1,0.1l0.7,0.3l0.7,0.3l0.7,0.6
	l0.7,0.6l0.5,0.7l0.5,0.7l0.2,0.6c0.1,0.3,0.3,0.7,0.3,0.8l0.1,0.2L350,403.6L350,403.6z M79.1,399.4c0,0,7.3-7.2,16.3-16l16.2-16
	v-0.1c0,0-0.1-0.3-0.2-0.6l-0.2-0.5l-0.1-0.7l-0.1-0.7l0.1-0.6l0.1-0.6l0.2-0.6l0.2-0.6l0.4-0.5l0.4-0.5l0.5-0.4l0.5-0.4l0.6-0.3
	l0.6-0.3l0-10.9c0-6,0-20.2,0-31.5l0-20.6H98.3H82l-0.1,0.1c0,0-0.2,0.4-0.4,0.8l-0.3,0.7l-0.5,0.7l-0.5,0.7l-0.7,0.5l-0.7,0.5
	l-0.8,0.3l-0.8,0.3l0,48.5l0,48.5L78,399c0.4,0.1,0.8,0.3,0.9,0.4C79,399.4,79.1,399.4,79.1,399.4L79.1,399.4z M401.5,399.5
	c0,0,0.1,0,0.1-0.1c0,0,0.4-0.2,0.8-0.3l0.8-0.3l0-48.5l0-48.5l-0.8-0.3l-0.8-0.3l-0.7-0.5l-0.7-0.5l-0.5-0.7l-0.5-0.7l-0.3-0.8
	l-0.3-0.8l-16,0l-16,0l-0.1,0.1l-0.1,0.1v31.4v31.4l0.7,0.3l0.7,0.3l0.5,0.4l0.5,0.4l0.4,0.5l0.4,0.5l0.3,0.6l0.3,0.6l0.1,0.7
	l0.1,0.7l-0.1,0.7l-0.1,0.7l-0.2,0.5l-0.2,0.5l16,16L401.5,399.5L401.5,399.5L401.5,399.5z M187,395.4c0,0,2.1-5.9,4.6-13.1
	c2.5-7.2,4.5-13.1,4.6-13.1l0-0.1l-0.3-0.2l-0.3-0.2l-0.4-0.6l-0.4-0.6l-0.3-0.6l-0.3-0.6l-3.6,0l-3.6,0v14.7L187,395.4L187,395.4
	L187,395.4z M293.5,395L293.5,395l0-14.5l0-14.5h-3.3h-3.3l-0.3,0.6l-0.3,0.6l-0.4,0.5l-0.4,0.5l-0.4,0.3l-0.4,0.3l3.4,10.1
	c1.9,5.6,3.8,11.4,4.3,13L293.5,395L293.5,395L293.5,395z M251.4,363.7h25.9l0.3-0.6l0.3-0.6l0.4-0.5l0.4-0.5l0.5-0.4l0.5-0.4
	l0.6-0.2l0.6-0.2l0-31.5l0-31.5h-40.3h-40.3v31.5v31.5l0.6,0.2l0.6,0.2l0.5,0.4l0.5,0.4l0.4,0.6l0.4,0.6l0.2,0.6l0.2,0.6l10.9,0
	C220.6,363.7,237.1,363.7,251.4,363.7L251.4,363.7z M290.2,363.7l3.3,0l0-30.9l0-30.9l-0.8-0.3l-0.8-0.3l-0.7-0.5l-0.7-0.5l-0.5-0.7
	l-0.5-0.7l-0.3-0.8c-0.2-0.4-0.4-0.8-0.4-0.8l-0.1-0.1l-2.7,0l-2.7,0l0,31.5l0,31.5l0.6,0.2l0.6,0.2l0.5,0.4l0.5,0.4l0.4,0.5
	l0.4,0.5l0.2,0.4c0.1,0.2,0.2,0.5,0.3,0.6l0.1,0.2L290.2,363.7L290.2,363.7z M328.6,363.7h31.7v-0.1c0,0,0.1-0.4,0.3-0.7l0.3-0.6
	l0.4-0.5l0.4-0.5l0.5-0.4l0.5-0.4l0.6-0.3l0.6-0.3v-31.5v-31.5l-31.1,0l-31.1,0l-0.1,0.1c0,0-0.2,0.4-0.4,0.8l-0.3,0.8l-0.5,0.7
	l-0.5,0.7l-0.7,0.5l-0.7,0.5l-0.6,0.2c-0.3,0.1-0.7,0.3-0.8,0.4l-0.2,0.1v30.9v30.9l0,0l0,0L328.6,363.7L328.6,363.7z M152.2,363.6
	h31.5v-30.9v-30.9l-0.8-0.3l-0.8-0.3l-0.7-0.5l-0.7-0.5l-0.5-0.7l-0.5-0.7l-0.4-0.9l-0.4-0.9h-30.9h-30.9v31.5v31.5l0.6,0.2l0.6,0.2
	l0.5,0.4l0.5,0.4l0.4,0.5l0.4,0.5l0.2,0.5c0.1,0.3,0.2,0.6,0.3,0.7l0,0.1L152.2,363.6L152.2,363.6z M190.6,363.6l3.6,0l0.3-0.6
	l0.3-0.6l0.4-0.5l0.4-0.5l0.5-0.4l0.5-0.4l0.6-0.2l0.6-0.2v-31.5v-31.5h-3h-3l-0.4,0.9l-0.4,0.9l-0.5,0.6l-0.5,0.6l-0.7,0.5
	l-0.7,0.5l-0.8,0.3l-0.8,0.3l0,30.9l0,30.9L190.6,363.6L190.6,363.6z M100,293.8h14.6v-3.6v-3.6l-0.6-0.2l-0.6-0.2l-0.5-0.4
	l-0.5-0.4l-0.3-0.4c-0.1-0.2-0.3-0.4-0.3-0.4s-5.9,2-13,4.5c-7.1,2.5-13,4.5-13.1,4.6l-0.2,0v0.1v0.1H100L100,293.8z M148.1,293.8
	l30.9,0l0.3-0.8l0.3-0.8l0.5-0.7l0.5-0.7l0.7-0.5l0.7-0.5l0.8-0.3l0.8-0.3l0-3l0-3l-31.5,0l-31.5,0l-0.3,0.6l-0.3,0.6l-0.4,0.5
	l-0.4,0.5l-0.5,0.4l-0.5,0.4l-0.6,0.2l-0.6,0.2v3.6v3.6l0,0l0,0L148.1,293.8L148.1,293.8z M194.7,293.8l3,0v-3.6v-3.6l-0.6-0.3
	l-0.6-0.3l-0.5-0.4l-0.5-0.4l-0.4-0.5l-0.4-0.5l-0.2-0.6l-0.2-0.6l-3.6,0l-3.6,0l0,3l0,3l0.8,0.3l0.8,0.3l0.7,0.5l0.7,0.5l0.5,0.7
	l0.5,0.7l0.2,0.5c0.1,0.3,0.3,0.7,0.4,0.8l0.1,0.3L194.7,293.8L194.7,293.8z M240.5,293.8h40.3v-3.6v-3.6l-0.6-0.2l-0.6-0.2
	l-0.5-0.4l-0.5-0.4l-0.4-0.5l-0.4-0.5l-0.2-0.6l-0.2-0.6l-36.7,0l-36.7,0l-0.2,0.6l-0.2,0.6l-0.4,0.5l-0.4,0.5l-0.5,0.4l-0.5,0.4
	l-0.6,0.3l-0.6,0.3l0,3.5c0,1.9,0,3.5,0,3.6l0,0.1L240.5,293.8L240.5,293.8z M286,293.8l2.8,0l0.3-0.8l0.3-0.8l0.5-0.6
	c0.3-0.3,0.5-0.7,0.6-0.8c0.1-0.1,0.4-0.3,0.7-0.6l0.6-0.4l0.8-0.3l0.8-0.3v-3v-3h-3.3h-3.3l-0.2,0.6l-0.2,0.6l-0.4,0.5l-0.4,0.5
	l-0.5,0.4l-0.5,0.4l-0.6,0.2l-0.6,0.2v3.6v3.6L286,293.8L286,293.8z M332.7,293.8l31.2,0v-3.6v-3.6l-0.6-0.3l-0.6-0.3l-0.5-0.4
	l-0.5-0.4l-0.4-0.5l-0.4-0.5l-0.3-0.6l-0.3-0.6h-31.8h-31.8l0,2.9l0,2.9l0.1,0.1l0.1,0.1l0.8,0.3l0.8,0.3l0.7,0.5l0.7,0.5l0.5,0.7
	l0.5,0.7l0.3,0.8l0.3,0.8L332.7,293.8L332.7,293.8z M380.8,293.8h14.4v-0.1v-0.1l-12.9-4.5c-7.1-2.5-13-4.6-13-4.6l-0.1,0l-0.3,0.4
	l-0.3,0.4l-0.5,0.4l-0.5,0.4l-0.6,0.2c-0.3,0.1-0.6,0.3-0.6,0.3l-0.1,0.1v3.5v3.5l0,0l0,0L380.8,293.8L380.8,293.8z M81.3,291.9
	c0,0,6.7-2.2,14.9-4.9l14.8-4.8v-0.3c0-0.1,0-0.5,0.1-0.8l0.1-0.5l0.2-0.6l0.2-0.6l0.4-0.5l0.4-0.5l0.5-0.4l0.5-0.4l0.6-0.2l0.6-0.2
	l0-36.7l0-36.7l-0.6-0.3l-0.6-0.3l-0.5-0.4l-0.5-0.4l-0.4-0.5l-0.4-0.5l-0.2-0.6l-0.2-0.6l-0.1-0.8l-0.1-0.8l-14.8-4.6
	c-8.1-2.6-14.8-4.6-14.9-4.6h-0.1l-0.5,0.6l-0.5,0.6l-0.7,0.5l-0.7,0.5l-0.8,0.3l-0.8,0.3l0,48.5l0,48.5l0.8,0.3l0.8,0.3l0.7,0.5
	l0.7,0.5l0.5,0.6L81.3,291.9L81.3,291.9L81.3,291.9z M399.3,291.9c0,0,0.3-0.2,0.5-0.6l0.5-0.6l0.6-0.5l0.6-0.5l0.8-0.3l0.8-0.3
	l0-29.8c0-16.4,0-38.2,0-48.5l0-18.7l-0.9-0.3l-0.9-0.3l-0.6-0.5l-0.6-0.5l-0.5-0.6c-0.3-0.3-0.5-0.6-0.5-0.6c0,0-6.6,2.1-14.6,4.6
	l-14.6,4.6v0.3c0,0.2,0,0.6-0.1,0.9l-0.1,0.5l-0.2,0.5l-0.2,0.5l-0.4,0.5l-0.4,0.5l-0.5,0.4l-0.5,0.4l-0.6,0.2
	c-0.3,0.1-0.6,0.3-0.6,0.3l0,0l0,36.7l0,36.7l0.6,0.3l0.6,0.3l0.5,0.4l0.5,0.4l0.4,0.5l0.4,0.5l0.3,0.6l0.3,0.6l0.1,0.8l0.1,0.8
	l10.8,3.6c5.9,2,12.5,4.1,14.6,4.8C397.6,291.3,399.3,291.9,399.3,291.9L399.3,291.9z M152.2,280.6h31.5v-40.3V200l-31.5,0l-31.5,0
	l-0.2,0.6l-0.2,0.6l-0.4,0.5l-0.4,0.5l-0.5,0.4l-0.5,0.4l-0.6,0.2l-0.6,0.2l0,36.7l0,36.7l0.6,0.2l0.6,0.2l0.5,0.4l0.5,0.4l0.4,0.5
	l0.4,0.5l0.1,0.3c0.1,0.2,0.2,0.4,0.3,0.6l0.1,0.3L152.2,280.6L152.2,280.6z M190.6,280.6l3.6,0l0.3-0.6l0.3-0.6l0.4-0.5l0.4-0.5
	l0.5-0.4l0.5-0.4l0.6-0.3l0.6-0.3l0-36.7l0-36.7l-0.7-0.3l-0.7-0.3l-0.5-0.4l-0.5-0.4l-0.4-0.5l-0.4-0.5l-0.3-0.6l-0.3-0.6h-3.6H187
	v40.3v40.3L190.6,280.6L190.6,280.6z M240.5,280.6h36.7l0.2-0.6l0.2-0.6l0.4-0.5l0.4-0.5l0.5-0.4l0.5-0.4l0.6-0.2l0.6-0.2l0-36.7
	l0-36.7l-0.6-0.3l-0.6-0.3l-0.5-0.4l-0.5-0.4l-0.3-0.5l-0.3-0.5l-0.3-0.7l-0.3-0.7l-36.7,0l-36.7,0l-0.3,0.7l-0.3,0.7l-0.4,0.5
	l-0.4,0.5l-0.5,0.4l-0.5,0.4l-0.7,0.3l-0.7,0.3l0,36.7l0,36.7l0.6,0.3l0.6,0.3l0.5,0.4l0.5,0.4l0.4,0.5l0.4,0.5l0.2,0.5
	c0.1,0.2,0.2,0.5,0.2,0.6l0.1,0.2L240.5,280.6L240.5,280.6z M290.2,280.6h3.3l0-40.3l0-40.3h-3.3h-3.3l-0.3,0.6l-0.3,0.6l-0.4,0.5
	l-0.4,0.5l-0.5,0.4l-0.5,0.4l-0.6,0.2l-0.6,0.2l0,36.7l0,36.7l0.6,0.2l0.6,0.2l0.5,0.4l0.5,0.4l0.4,0.5l0.4,0.5l0.2,0.6l0.2,0.6
	L290.2,280.6L290.2,280.6z M328.6,280.6l31.8,0l0.3-0.6l0.3-0.6l0.4-0.5l0.4-0.5l0.5-0.4l0.5-0.4l0.6-0.3l0.6-0.3l0-36.7l0-36.7
	l-0.6-0.2l-0.6-0.2l-0.6-0.4l-0.6-0.4l-0.4-0.5l-0.4-0.5l-0.3-0.6l-0.3-0.6l-31.8,0l-31.8,0l-0.1,40.2l-0.1,40.2l0,0.1l0,0.1
	L328.6,280.6L328.6,280.6z M152.2,197.6h31.5v-2.8V192l-0.8-0.3l-0.8-0.3l-0.7-0.5l-0.7-0.5l-0.5-0.7l-0.5-0.7l-0.3-0.8l-0.3-0.8
	h-30.9h-30.9l0,3.3l0,3.3l0.6,0.2l0.6,0.2l0.5,0.4l0.5,0.4l0.4,0.5l0.4,0.5l0.1,0.3c0.1,0.2,0.2,0.4,0.3,0.6l0.1,0.3H152.2
	L152.2,197.6z M190.6,197.6h3.6l0.3-0.6l0.3-0.6l0.4-0.5l0.4-0.5l0.5-0.4l0.5-0.4l0.6-0.3l0.6-0.3v-3.3v-3.3h-3h-3l-0.3,0.8
	l-0.3,0.8l-0.5,0.7l-0.5,0.7l-0.7,0.5l-0.7,0.5l-0.8,0.3l-0.8,0.3v2.8v2.7H190.6L190.6,197.6z M240.5,197.5l36.7,0l0.3-0.6l0.3-0.6
	l0.4-0.5l0.4-0.5l0.5-0.4l0.5-0.4l0.6-0.2l0.6-0.2l0-3.3l0-3.3h-40.3h-40.3v3.3v3.3l0.7,0.3l0.7,0.3l0.5,0.4l0.5,0.4l0.4,0.5
	l0.4,0.5l0.3,0.7l0.3,0.7L240.5,197.5L240.5,197.5z M290.2,197.5l3.3,0v-2.7V192l-0.8-0.3l-0.8-0.3l-0.7-0.5l-0.7-0.5l-0.5-0.7
	l-0.5-0.7l-0.3-0.8l-0.3-0.8l-2.8,0l-2.8,0v3.3v3.3l0.6,0.3l0.6,0.3l0.5,0.4l0.5,0.4l0.4,0.5l0.4,0.5l0.1,0.3
	c0.1,0.2,0.2,0.4,0.3,0.6l0.1,0.3L290.2,197.5L290.2,197.5z M328.5,197.5l31.8,0l0.2-0.6l0.2-0.6l0.4-0.5l0.4-0.5l0.5-0.4l0.5-0.4
	l0.6-0.2l0.6-0.2v-3.3v-3.3h-31.2h-31.2l-0.2,0.6c-0.1,0.3-0.3,0.7-0.4,0.8l-0.1,0.3l-0.5,0.7l-0.5,0.7l-0.7,0.5l-0.7,0.5l-0.8,0.3
	l-0.8,0.3v2.8v2.8L328.5,197.5L328.5,197.5z M111.7,196L111.7,196l0.4-0.4l0.3-0.4l0.5-0.4l0.5-0.4l0.6-0.2l0.6-0.2l0-3.3l0-3.3
	h-14.5H85.7l0,0c0,0,5.8,2,12.9,4.4C105.8,194.1,111.6,196,111.7,196L111.7,196z M369.3,196.1c0,0,5.8-2,12.8-4.3
	c7-2.4,12.8-4.4,12.8-4.4c0,0-6.4,0-14.3,0h-14.3v3.3v3.3l0.6,0.2l0.6,0.2l0.5,0.4l0.5,0.4l0.3,0.4
	C369.1,195.9,369.3,196.1,369.3,196.1L369.3,196.1z M98.3,184h16.3v-31.8v-31.8l-0.6-0.2l-0.6-0.2l-0.5-0.4l-0.5-0.4l-0.4-0.5
	l-0.4-0.5l-0.2-0.6l-0.2-0.6l-0.1-0.6l-0.1-0.6l0.1-0.7l0.1-0.7l0.2-0.5c0.1-0.3,0.2-0.5,0.2-0.5c0,0-7.3-7.1-16.2-15.8L79.1,81.6
	l-0.3,0.1c-0.2,0.1-0.6,0.2-0.9,0.3c-0.3,0.1-0.6,0.2-0.7,0.3l-0.1,0.1l0.1,48.4l0,48.4l0.8,0.3l0.8,0.3l0.7,0.5l0.7,0.5l0.5,0.7
	l0.5,0.7l0.3,0.6c0.1,0.3,0.3,0.7,0.3,0.8L82,184L98.3,184L98.3,184z M148.1,184H179l0.3-0.8l0.3-0.8l0.5-0.7l0.5-0.7l0.7-0.5
	l0.7-0.5l0.8-0.3l0.8-0.3l0-31.2l0-31.2h-31.5h-31.5v0.1c0,0.1-0.1,0.4-0.2,0.7l-0.2,0.6l-0.4,0.5l-0.4,0.5l-0.5,0.4l-0.5,0.4
	l-0.6,0.2l-0.6,0.2l0,31.8l0,31.8L148.1,184L148.1,184z M194.7,184h3l0-31.8l0-31.8l-0.6-0.2l-0.6-0.2l-0.6-0.4l-0.6-0.4l-0.4-0.5
	l-0.4-0.5l-0.3-0.6l-0.3-0.6l-3.6,0l-3.6,0v31.2v31.2l0.8,0.3l0.8,0.3l0.7,0.5l0.7,0.5l0.5,0.7l0.5,0.7l0.3,0.8l0.3,0.8L194.7,184
	L194.7,184z M240.5,184h40.3v-31.8v-31.8l-0.6-0.2l-0.6-0.2l-0.5-0.4l-0.5-0.4l-0.4-0.6l-0.4-0.6l-0.2-0.6l-0.2-0.6l-36.7,0l-36.7,0
	l-0.2,0.6l-0.2,0.6l-0.4,0.6l-0.4,0.6l-0.5,0.4l-0.5,0.4l-0.6,0.2l-0.6,0.2l0,31.7c0,17.4,0,31.7,0,31.8l0,0.1L240.5,184L240.5,184z
	 M286,184l2.8,0l0.3-0.8l0.3-0.8l0.5-0.7l0.5-0.7l0.7-0.5l0.7-0.5l0.8-0.3l0.8-0.3l0-31.2l0-31.2h-3.3h-3.3l-0.2,0.6l-0.2,0.6
	l-0.4,0.5l-0.4,0.5l-0.6,0.5l-0.6,0.5l-0.6,0.2l-0.6,0.2v31.8v31.8L286,184L286,184z M332.7,184h31.2l0-31.8l0-31.8l-0.6-0.2
	l-0.6-0.2l-0.5-0.4l-0.5-0.4l-0.4-0.5l-0.4-0.5l-0.2-0.6c-0.1-0.3-0.3-0.7-0.3-0.7l0-0.1l-14,0c-7.7,0-22,0-31.7,0h-17.7v31.2v31.2
	l0.7,0.3l0.7,0.3l0.8,0.6l0.8,0.6l0.5,0.7l0.5,0.7l0.4,0.9l0.4,0.9L332.7,184L332.7,184z M382.5,184l16.1,0l0.3-0.8l0.3-0.8l0.5-0.7
	l0.5-0.7l0.7-0.5l0.7-0.5l0.8-0.3l0.8-0.3v-48.5V82.3l-0.8-0.3c-0.4-0.2-0.9-0.3-0.9-0.4l-0.1-0.1l-14.4,14.2
	c-7.9,7.8-15.1,14.9-16,15.8l-1.6,1.6l0.2,0.5l0.2,0.5l0.1,0.7l0.1,0.7l-0.1,0.7l-0.1,0.7l-0.2,0.6l-0.2,0.6l-0.4,0.5l-0.4,0.5
	l-0.5,0.4l-0.5,0.4l-0.6,0.3l-0.6,0.3v31.8V184L382.5,184L382.5,184z M152.2,114.5h31.5V98.4V82.3L183,82l-0.7-0.3l-0.8-0.6
	l-0.8-0.6l-0.5-0.7l-0.5-0.7l-0.3-0.8l-0.3-0.8h-48.5H82l-0.1,0.3c0,0.2-0.2,0.6-0.3,0.9l-0.3,0.6l16,16l16,16l0.8-0.3l0.8-0.3h1h1
	l0.5,0.2c0.3,0.1,0.7,0.2,0.9,0.4l0.4,0.2l0.4,0.4l0.4,0.4l0.4,0.5l0.4,0.5l0.2,0.6l0.2,0.6L152.2,114.5L152.2,114.5z M190.6,114.4
	l3.6,0l0.2-0.6l0.2-0.6l0.4-0.6l0.4-0.6l0.3-0.2c0.2-0.1,0.3-0.3,0.3-0.3c0,0-2.1-5.9-4.6-13c-2.5-7.1-4.6-12.9-4.6-13
	c0,0,0,6.5,0,14.4v14.5L190.6,114.4L190.6,114.4z M240.5,114.5h36.7l0.2-0.6l0.2-0.6l0.4-0.5l0.4-0.5l0.6-0.4l0.6-0.4l0.6-0.2
	l0.6-0.2l0.8-0.1l0.8-0.1l4.6-14.6c2.6-8,4.6-14.6,4.6-14.6c0,0-0.2-0.2-0.5-0.4l-0.5-0.4L290,80l-0.5-0.7l-0.4-0.9l-0.4-0.9
	l-48.5,0l-48.5,0l-0.4,0.9l-0.4,0.9l-0.6,0.7l-0.6,0.7l-0.4,0.3l-0.4,0.3v0.1c0,0,2.2,6.6,4.8,14.6l4.8,14.6l0.8,0.1l0.8,0.1
	l0.6,0.2l0.6,0.2l0.5,0.4l0.5,0.4l0.4,0.5l0.4,0.5l0.2,0.5c0.1,0.3,0.2,0.5,0.3,0.6l0.1,0.2L240.5,114.5L240.5,114.5z M290.2,114.5
	h3.3v-14.3V85.9l-0.1,0.1c0,0-2,5.8-4.4,12.8c-2.4,7-4.3,12.7-4.3,12.8v0.1l0.3,0.2l0.3,0.2l0.4,0.5l0.4,0.5l0.2,0.4
	c0.1,0.2,0.2,0.5,0.3,0.7l0.1,0.3L290.2,114.5L290.2,114.5z M328.6,114.4l31.8,0l0.3-0.6l0.3-0.6l0.4-0.5l0.4-0.5l0.5-0.4l0.5-0.4
	l0.7-0.3l0.7-0.3h1h1l0.7,0.3c0.4,0.1,0.7,0.3,0.7,0.3c0,0,6.8-6.8,15.1-15.2c8.2-8.4,15.3-15.6,15.7-16l0.7-0.8l-0.3-0.8
	c-0.2-0.4-0.3-0.8-0.3-0.9v-0.1H350h-48.5l-0.3,0.8l-0.3,0.8l-0.4,0.6c-0.2,0.3-0.5,0.6-0.6,0.7c-0.1,0.1-0.5,0.4-0.9,0.7l-0.7,0.5
	l-0.7,0.3l-0.7,0.3l0,16.1l0,16.1L328.6,114.4L328.6,114.4z"/>
<circle class="st1" cx="295.4" cy="185.5" r="9"/>
<line class="st2" x1="296.8" y1="82.2" x2="295.6" y2="411.8"/>
<path class="st3" d="M69,69.2"/>
</svg>
