<?xml version="1.0" encoding="utf-8"?>
<!-- Generator: Adobe Illustrator 24.0.1, SVG Export Plug-In . SVG Version: 6.00 Build 0)  -->
<svg version="1.1" id="Layer_1" xmlns="http://www.w3.org/2000/svg" xmlns:xlink="http://www.w3.org/1999/xlink" x="0px" y="0px"
	 viewBox="0 0 480.54 480.53" style="enable-background:new 0 0 480.54 480.53;" xml:space="preserve">
<style type="text/css">
	.st0{fill:#676767;}
	.st1{fill:#ED1C24;}
</style>
<path id="path3426" class="st0" d="M9.65,480.42c-0.45,0.02-1.18,0-1.62-0.03l-0.81-0.07l-1.15-0.42l-1.15-0.42l-1.09-0.78
	l-1.09-0.78l-0.73-0.92l-0.73-0.92l-0.46-1.12l-0.46-1.12l-0.16-1.17l-0.16-1.17l0.2-1.37l0.2-1.37l0.47-1.11l0.47-1.11l0.72-0.95
	l0.72-0.95l1-0.77l1-0.77l0.99-0.41c0.54-0.22,1.04-0.43,1.11-0.46l0.13-0.05v-68v-68l-1.14-0.43l-1.14-0.43l-1.01-0.75l-1.01-0.75
	l-0.73-0.93l-0.73-0.93l-0.46-1.1l-0.46-1.1l-0.16-1.21l-0.16-1.21l0.16-1.19l0.16-1.19l0.47-1.13l0.47-1.13l0.78-1l0.78-1
	l0.95-0.73l0.95-0.73l1.13-0.46l1.13-0.46v-68.05v-68.05l-1.17-0.49l-1.17-0.49l-0.94-0.72l-0.94-0.72l-0.76-1l-0.76-1l-0.46-1.1
	l-0.46-1.1l-0.16-1.2l-0.16-1.2l0.13-1.13l0.13-1.13l0.48-1.18l0.48-1.18L2,157.65l0.75-0.95l0.97-0.72l0.97-0.72l1.14-0.43
	l1.14-0.43l0.04-0.2c0.02-0.11,0.01-30.74-0.03-68.06L6.91,18.26l-1.12-0.48L4.67,17.3l-0.95-0.74l-0.95-0.74l-0.72-0.95l-0.72-0.95
	l-0.48-1.16l-0.48-1.16l-0.18-1.33L0,8.96l0.16-1.2l0.16-1.2l0.45-1.07l0.45-1.07l0.75-0.94l0.75-0.94l1.06-0.76l1.06-0.76
	l1.13-0.41L7.12,0.2L8,0.1L8.89,0l1.12,0.1l1.12,0.1l1.3,0.51l1.3,0.51l1.03,0.79l1.03,0.79l0.72,0.93l0.72,0.93l0.48,1.14
	l0.48,1.14l68.07,0.03l68.08,0.03l0.53-1.31l0.53-1.31l0.71-0.92l0.71-0.92l0.98-0.74l0.98-0.74l1.17-0.44l1.17-0.44l0.66-0.1
	c0.36-0.05,0.98-0.1,1.37-0.1c0.39,0,1.02,0.05,1.4,0.1l0.69,0.1l1.19,0.46l1.19,0.46l1.03,0.78l1.03,0.78l0.76,0.99l0.76,0.99
	l0.49,1.17l0.49,1.17l68.07-0.03l68.07-0.03l0.52-1.2l0.52-1.2l0.74-0.96l0.74-0.96l1.02-0.77l1.02-0.77l1.34-0.52l1.34-0.52h1.78
	h1.78l1.32,0.51l1.32,0.51l0.91,0.68l0.91,0.68l0.77,0.97l0.77,0.97l0.54,1.31l0.54,1.31l68.08-0.03l68.08-0.03l0.49-1.16l0.49-1.16
	l0.72-0.94l0.72-0.94l1.06-0.8l1.06-0.81l1.16-0.46l1.16-0.46l0.64-0.1l0.64-0.1h1.17h1.17l0.59,0.15c0.32,0.08,0.98,0.3,1.47,0.48
	l0.88,0.33l1.03,0.74l1.03,0.74l0.75,0.93l0.75,0.93l0.47,1.12l0.47,1.12l0.15,1.17l0.15,1.17l-0.19,1.37l-0.19,1.37l-0.49,1.16
	l-0.49,1.16l-0.7,0.9l-0.7,0.9l-0.57,0.45c-0.31,0.25-0.83,0.63-1.14,0.84l-0.58,0.39l-0.97,0.38l-0.97,0.38l0.03,68.07l0.02,68.07
	l1.18,0.48l1.18,0.48l0.91,0.68l0.91,0.68l0.75,0.96l0.75,0.96l0.44,1.04l0.44,1.04l0.18,1.23l0.18,1.23l-0.17,1.25l-0.17,1.25
	l-0.47,1.1l-0.47,1.1l-0.74,0.96l-0.74,0.96l-0.96,0.74l-0.96,0.74l-1.13,0.47l-1.13,0.47l-0.04,67.99
	c-0.03,37.4-0.03,68.04-0.01,68.09l0.03,0.1l1.12,0.45l1.12,0.45l0.78,0.6c0.43,0.33,0.89,0.69,1.02,0.82
	c0.13,0.12,0.54,0.61,0.91,1.08l0.67,0.86l0.5,1.16l0.5,1.16l0.16,1.2l0.16,1.2l-0.13,1.14l-0.13,1.14l-0.49,1.19l-0.49,1.19
	l-0.75,0.95l-0.75,0.95l-0.92,0.69l-0.92,0.69l-1.2,0.48l-1.2,0.48v68.01v68.01l1.12,0.47l1.12,0.47l0.98,0.75l0.98,0.75l0.72,0.94
	l0.72,0.94l0.49,1.19l0.49,1.19l0.17,1.33l0.17,1.33l-0.16,1.18l-0.16,1.18l-0.47,1.11l-0.47,1.11l-0.72,0.89l-0.72,0.89l-1.07,0.78
	l-1.07,0.78L474.4,480l-1.21,0.43l-1.27,0.05l-1.27,0.05l-0.75-0.12l-0.75-0.12l-1.18-0.46l-1.18-0.46l-1.05-0.81l-1.05-0.81
	l-0.73-0.94l-0.73-0.94l-0.5-1.19l-0.5-1.19h-68.06h-68.06l-0.09,0.23c-0.05,0.13-0.3,0.73-0.56,1.34l-0.47,1.12l-0.7,0.89
	l-0.7,0.89l-0.85,0.64c-0.47,0.35-1.01,0.72-1.2,0.82c-0.19,0.1-0.85,0.36-1.47,0.58l-1.12,0.4l-1.17,0.05l-1.17,0.05l-0.73-0.11
	l-0.73-0.11l-1.2-0.46l-1.2-0.46l-1.01-0.78l-1.01-0.78l-0.77-1.01l-0.77-1.01l-0.47-1.12l-0.47-1.12l-68.06-0.03l-68.06-0.03
	l-0.46,1.13l-0.46,1.13l-0.81,1.05l-0.81,1.05l-0.96,0.74l-0.96,0.74l-1.24,0.49l-1.24,0.49l-0.84,0.11l-0.84,0.11l-0.96-0.06
	l-0.96-0.06l-0.41-0.11c-0.22-0.06-0.87-0.29-1.43-0.51l-1.02-0.4l-0.97-0.73l-0.97-0.73l-0.7-0.91l-0.7-0.91l-0.53-1.29l-0.53-1.29
	H86.3H18.25l-0.47,1.14l-0.47,1.14l-0.73,0.96l-0.73,0.96l-1.08,0.82l-1.08,0.82l-1.1,0.43l-1.1,0.43l-0.51,0.1
	C10.69,480.35,10.09,480.41,9.65,480.42L9.65,480.42z M86.38,468.93h67.96l0.48-1.18l0.48-1.18l0.75-0.97l0.75-0.97l1.03-0.79
	l1.03-0.79l1.06-0.43l1.06-0.43V439.3v-22.92l-44.19,0.03l-44.19,0.03l-0.35,0.85l-0.35,0.85l-0.54,0.72l-0.54,0.72l-0.74,0.57
	l-0.74,0.57l-0.91,0.38l-0.91,0.38l-0.87,0.09l-0.87,0.09L65,421.59l-0.76-0.06l-0.99-0.38l-0.99-0.38L39.83,443.5l-22.42,22.74
	l0.04,0.15c0.02,0.08,0.23,0.61,0.45,1.17c0.23,0.56,0.43,1.09,0.46,1.19l0.06,0.18L86.38,468.93L86.38,468.93z M240.27,468.91
	l68.04-0.03l0.54-1.29l0.54-1.29l0.76-0.95l0.75-0.95l0.73-0.54l0.73-0.54l-0.05-0.17c-0.02-0.09-2.77-8.82-6.1-19.39
	c-3.32-10.57-6.25-19.87-6.5-20.66l-0.45-1.43l-0.95-0.06l-0.95-0.06l-0.92-0.37l-0.92-0.37l-0.81-0.62l-0.81-0.62l-0.53-0.7
	l-0.53-0.7l-0.37-0.87l-0.37-0.87l-51.49-0.03l-51.49-0.03l-0.39,0.92l-0.39,0.92l-0.57,0.73l-0.57,0.73l-0.78,0.59l-0.78,0.59
	l-0.79,0.31l-0.79,0.31l-1.11,0.12l-1.11,0.12l-6.78,20.74c-3.73,11.41-6.78,20.79-6.78,20.85v0.11l0.69,0.52l0.7,0.52l0.69,0.9
	l0.69,0.9l0.44,1.01c0.24,0.56,0.51,1.16,0.59,1.34l0.15,0.33L240.27,468.91L240.27,468.91z M394.17,468.93h68.02v-0.16
	c0-0.09,0.23-0.69,0.5-1.33l0.5-1.16l-20.65-21.22c-11.36-11.67-21.32-21.9-22.14-22.72l-1.49-1.5l-0.96,0.38l-0.96,0.38h-1.52
	h-1.52l-0.96-0.39l-0.96-0.39l-0.75-0.57l-0.75-0.57l-0.57-0.73l-0.58-0.73l-0.39-0.92l-0.39-0.92l-44.55,0.03l-44.55,0.03
	l-0.02,22.82l-0.02,22.82l0.1,0.13l0.1,0.13l0.99,0.37l0.99,0.37l1.03,0.8l1.03,0.8l0.75,0.97l0.75,0.97l0.34,0.83
	c0.19,0.46,0.4,0.98,0.48,1.16l0.14,0.33L394.17,468.93L394.17,468.93z M14.18,463.15c0.04,0,10.3-10.09,22.8-22.42l22.74-22.43
	v-0.1c0-0.06-0.13-0.43-0.3-0.83l-0.3-0.73l-0.12-0.98l-0.12-0.98l0.12-0.9l0.12-0.9l0.34-0.84l0.34-0.84l0.53-0.71l0.53-0.71
	l0.75-0.57l0.75-0.57l0.87-0.37l0.87-0.37l0.03-15.26c0.02-8.39,0-28.29-0.04-44.2l-0.07-28.94H41.2H18.35l-0.1,0.13
	c-0.05,0.07-0.29,0.6-0.52,1.18l-0.43,1.05l-0.75,0.97l-0.75,0.97l-0.94,0.71l-0.94,0.71l-1.13,0.47l-1.12,0.47l-0.02,67.98
	l-0.03,67.98l1.06,0.38c0.58,0.21,1.14,0.44,1.24,0.52C14.03,463.08,14.15,463.14,14.18,463.15L14.18,463.15z M466.42,463.16
	c0.07,0,0.15-0.04,0.18-0.09c0.03-0.05,0.56-0.27,1.17-0.48l1.12-0.39l-0.03-68.01l-0.02-68.01l-1.11-0.46l-1.11-0.46l-0.97-0.74
	l-0.97-0.74l-0.71-0.93l-0.71-0.93l-0.47-1.13l-0.47-1.13l-22.51-0.07l-22.51-0.07l-0.13,0.1l-0.13,0.1v44.11v44.11l0.92,0.38
	l0.92,0.38l0.7,0.55l0.7,0.55l0.53,0.67l0.53,0.67l0.38,0.88l0.38,0.88l0.12,0.93l0.12,0.93l-0.13,1l-0.12,1l-0.33,0.76l-0.33,0.76
	l22.44,22.45l22.44,22.45L466.42,463.16L466.42,463.16z M165.62,457.42c0.04-0.05,2.94-8.31,6.43-18.36
	c3.49-10.04,6.37-18.33,6.41-18.41l0.06-0.15l-0.49-0.35l-0.49-0.35l-0.62-0.82l-0.62-0.82l-0.36-0.86l-0.36-0.86l-5.03-0.03
	l-5.03-0.03v20.57v20.57L165.62,457.42L165.62,457.42z M314.9,456.97h0.08l-0.03-20.27l-0.02-20.27h-4.66h-4.66l-0.38,0.9l-0.38,0.9
	l-0.58,0.76l-0.58,0.76l-0.53,0.4l-0.53,0.4l4.77,14.22c2.62,7.82,5.37,16.01,6.1,18.2l1.33,3.98L314.9,456.97L314.9,456.97z
	 M255.82,412.99h36.26l0.37-0.88l0.37-0.88l0.59-0.77l0.59-0.77l0.72-0.56l0.72-0.56l0.84-0.32l0.84-0.32l-0.02-44.19l-0.02-44.19
	h-56.51h-56.51v44.18v44.18l0.84,0.33l0.84,0.33l0.68,0.51l0.68,0.51l0.62,0.8l0.62,0.8l0.35,0.85l0.35,0.85l15.25,0.05
	C212.7,412.96,235.88,412.99,255.82,412.99L255.82,412.99z M310.29,413.01l4.64-0.03l0.02-43.38l0.03-43.38l-1.17-0.49l-1.17-0.49
	l-0.95-0.73l-0.95-0.73l-0.74-0.96l-0.74-0.96l-0.45-1.11c-0.25-0.61-0.5-1.14-0.56-1.19l-0.11-0.08l-3.75,0.02l-3.75,0.02
	l-0.02,44.19l-0.02,44.19l0.84,0.34l0.84,0.34l0.76,0.59l0.76,0.59l0.56,0.74l0.56,0.74l0.24,0.61c0.13,0.33,0.3,0.73,0.38,0.89
	l0.14,0.28L310.29,413.01L310.29,413.01z M364.1,413.04h44.52v-0.11c0-0.06,0.17-0.51,0.37-0.99l0.37-0.88l0.54-0.7l0.54-0.7
	l0.68-0.52l0.68-0.52l0.91-0.36l0.91-0.36v-44.18v-44.18l-43.69-0.03l-43.69-0.03l-0.1,0.13c-0.06,0.07-0.3,0.61-0.54,1.19
	l-0.44,1.07l-0.72,0.94l-0.72,0.94l-1,0.77l-1,0.77l-0.88,0.35c-0.48,0.2-1.01,0.42-1.16,0.5l-0.28,0.14v43.3v43.3l0.07,0.07
	l0.07,0.07L364.1,413.04L364.1,413.04z M116.79,412.94h44.19v-43.36v-43.36l-1.13-0.47l-1.13-0.47l-0.97-0.73l-0.97-0.73l-0.72-0.93
	l-0.72-0.93l-0.51-1.2l-0.51-1.2h-43.37H67.58v44.17v44.17l0.88,0.34l0.88,0.34l0.74,0.56l0.74,0.56l0.52,0.69l0.52,0.69l0.31,0.76
	c0.17,0.42,0.33,0.84,0.36,0.94l0.06,0.18L116.79,412.94L116.79,412.94z M170.57,412.91l5.04-0.03l0.39-0.9l0.39-0.9l0.57-0.7
	l0.57-0.7l0.73-0.55l0.73-0.55l0.81-0.34l0.81-0.34v-44.18v-44.18h-4.2h-4.2l-0.52,1.22l-0.52,1.22l-0.69,0.89l-0.69,0.89
	l-0.95,0.73l-0.95,0.73l-1.14,0.47l-1.14,0.47l-0.02,43.38l-0.02,43.38L170.57,412.91L170.57,412.91z M43.59,315.03h20.49v-5.05
	v-5.05l-0.88-0.35l-0.88-0.35l-0.73-0.55l-0.73-0.55l-0.39-0.54c-0.21-0.3-0.43-0.54-0.47-0.54c-0.04,0-8.26,2.85-18.27,6.33
	c-10.01,3.48-18.29,6.36-18.42,6.4l-0.23,0.07v0.09v0.09L43.59,315.03L43.59,315.03z M111,315.01l43.33-0.03l0.49-1.17l0.49-1.17
	l0.72-0.94l0.72-0.94l0.96-0.73l0.96-0.73l1.13-0.47l1.13-0.47l0.02-4.22l0.03-4.22l-44.2,0.03l-44.2,0.03l-0.38,0.88l-0.37,0.88
	l-0.53,0.69l-0.53,0.69l-0.73,0.56l-0.73,0.56l-0.88,0.35l-0.88,0.35v4.98v4.98l0.07,0.07l0.07,0.07L111,315.01L111,315.01z
	 M176.41,315.01l4.19-0.03v-5.02v-5.02l-0.87-0.37l-0.87-0.37l-0.72-0.54l-0.72-0.54l-0.56-0.73l-0.56-0.73l-0.34-0.85l-0.34-0.85
	l-5.04-0.03l-5.04-0.03l0.02,4.22l0.03,4.22l1.1,0.44l1.11,0.44l0.97,0.74l0.97,0.74l0.75,0.96l0.74,0.96l0.31,0.76
	c0.17,0.42,0.4,0.96,0.5,1.19l0.19,0.43L176.41,315.01L176.41,315.01z M240.61,315.03h56.51v-5.06v-5.06l-0.84-0.33l-0.85-0.33
	l-0.75-0.58l-0.75-0.58l-0.58-0.75l-0.58-0.75l-0.33-0.85l-0.33-0.85l-51.53,0.03l-51.53,0.03l-0.35,0.84l-0.35,0.84l-0.55,0.73
	l-0.55,0.73l-0.7,0.53l-0.7,0.53l-0.9,0.38l-0.9,0.38l-0.02,4.92c-0.01,2.7,0,4.97,0.02,5.04l0.05,0.13L240.61,315.03L240.61,315.03
	z M304.44,315.01l3.86-0.03l0.49-1.17l0.49-1.17l0.66-0.86c0.36-0.47,0.77-0.96,0.9-1.08c0.13-0.12,0.59-0.49,1.03-0.82l0.79-0.6
	l1.16-0.48l1.16-0.48v-4.2v-4.2h-4.69h-4.69l-0.35,0.87l-0.35,0.87l-0.55,0.71l-0.55,0.71l-0.73,0.58l-0.73,0.58l-0.87,0.35
	l-0.87,0.35v5.05v5.05L304.44,315.01L304.44,315.01z M369.91,315.01l43.74-0.03v-5.02v-5.02l-0.87-0.37l-0.87-0.37l-0.72-0.54
	l-0.72-0.54l-0.55-0.72l-0.55-0.72l-0.36-0.87l-0.36-0.87h-44.58h-44.58l-0.02,4.1l-0.02,4.1l0.11,0.13l0.11,0.13l1.07,0.43
	l1.07,0.43l0.98,0.75l0.98,0.75l0.73,0.95l0.73,0.95l0.49,1.17l0.49,1.17L369.91,315.01L369.91,315.01z M437.4,315.03h20.22v-0.08
	v-0.08l-18.13-6.38c-9.97-3.51-18.18-6.4-18.23-6.41l-0.1-0.03l-0.43,0.57l-0.43,0.57l-0.72,0.54l-0.72,0.54l-0.83,0.33
	c-0.46,0.18-0.87,0.38-0.91,0.44l-0.08,0.11v4.88v4.88l0.07,0.07l0.07,0.07L437.4,315.03L437.4,315.03z M17.27,312.27
	c0.07-0.02,9.46-3.09,20.88-6.82l20.76-6.79v-0.39c0-0.21,0.05-0.72,0.11-1.12l0.11-0.73l0.32-0.8l0.32-0.8l0.57-0.77l0.57-0.77
	l0.75-0.57l0.75-0.57l0.84-0.34l0.84-0.34l-0.03-51.53l-0.02-51.53l-0.86-0.36l-0.86-0.36l-0.72-0.56l-0.72-0.56l-0.53-0.71
	l-0.53-0.71l-0.35-0.83l-0.35-0.83l-0.13-1.11l-0.13-1.11l-20.74-6.52c-11.41-3.59-20.79-6.52-20.85-6.52h-0.11l-0.65,0.84
	l-0.65,0.84l-0.97,0.72l-0.97,0.72l-1.12,0.45l-1.12,0.45l-0.02,68.03l-0.02,68.03l1.14,0.45l1.14,0.45l0.98,0.73l0.98,0.73
	l0.64,0.82l0.64,0.82L17.27,312.27L17.27,312.27z M463.33,312.29c0.04,0.01,0.36-0.35,0.71-0.8l0.64-0.81l0.91-0.69l0.91-0.69
	l1.17-0.48l1.17-0.48l0.07-41.78c0.04-22.98,0.06-53.6,0.05-68.05l-0.03-26.27l-1.2-0.48l-1.2-0.48l-0.91-0.68l-0.91-0.68
	l-0.66-0.85c-0.36-0.47-0.69-0.85-0.73-0.85c-0.04,0-9.28,2.93-20.54,6.51l-20.47,6.52v0.46c0,0.25-0.07,0.8-0.14,1.22l-0.14,0.76
	l-0.31,0.74l-0.31,0.74l-0.56,0.71l-0.56,0.71l-0.69,0.53l-0.69,0.53l-0.81,0.33c-0.45,0.18-0.84,0.36-0.88,0.4l-0.07,0.07
	l-0.02,51.49l-0.02,51.49l0.86,0.36l0.86,0.36l0.73,0.55l0.73,0.55l0.55,0.72l0.55,0.72l0.36,0.86l0.36,0.86l0.12,1.14l0.12,1.14
	l15.17,5.03c8.34,2.76,17.54,5.82,20.45,6.79C460.88,311.49,463.29,312.28,463.33,312.29L463.33,312.29z M116.79,296.47h44.19
	v-56.56v-56.56l-44.2,0.03l-44.2,0.03l-0.35,0.88l-0.35,0.88l-0.57,0.74l-0.57,0.74l-0.73,0.56l-0.73,0.56l-0.87,0.34l-0.87,0.34
	l0.02,51.5l0.02,51.5l0.84,0.34l0.84,0.34l0.75,0.56l0.75,0.56l0.55,0.73l0.55,0.73l0.16,0.41c0.09,0.22,0.26,0.62,0.37,0.89
	l0.21,0.48L116.79,296.47L116.79,296.47z M170.57,296.44l5.03-0.03l0.36-0.86l0.36-0.86l0.56-0.72l0.56-0.72l0.7-0.53l0.7-0.53
	l0.89-0.38l0.89-0.38l0.02-51.49l0.03-51.49l-0.93-0.39l-0.93-0.39l-0.69-0.54l-0.69-0.54l-0.55-0.71l-0.55-0.71l-0.38-0.91
	l-0.38-0.91h-5.01h-5.01v56.56v56.56L170.57,296.44L170.57,296.44z M240.59,296.47h51.52l0.35-0.87l0.35-0.87l0.56-0.73l0.56-0.73
	l0.73-0.56l0.73-0.56l0.87-0.35l0.87-0.35l-0.02-51.53l-0.02-51.53l-0.86-0.36l-0.86-0.36l-0.73-0.56l-0.73-0.56l-0.49-0.66
	l-0.49-0.66l-0.41-0.93l-0.41-0.93l-51.49-0.03l-51.49-0.03l-0.38,0.92l-0.38,0.92l-0.55,0.7l-0.55,0.7l-0.69,0.54l-0.69,0.54
	l-0.93,0.39l-0.93,0.39l0.02,51.49l0.03,51.49l0.87,0.36l0.87,0.36l0.73,0.55l0.73,0.55l0.56,0.73l0.56,0.73l0.26,0.64
	c0.14,0.35,0.3,0.75,0.35,0.87l0.09,0.23H240.59L240.59,296.47z M310.29,296.47h4.69l-0.03-56.54l-0.02-56.54h-4.66h-4.66
	l-0.36,0.87l-0.36,0.87l-0.56,0.73l-0.56,0.73l-0.73,0.55l-0.73,0.55l-0.84,0.35l-0.84,0.35l-0.03,51.53l-0.02,51.53l0.85,0.33
	l0.84,0.33l0.75,0.58l0.75,0.58l0.57,0.74l0.57,0.74l0.34,0.85l0.34,0.85L310.29,296.47L310.29,296.47z M364.11,296.44l44.55-0.03
	l0.36-0.87l0.36-0.87l0.54-0.72l0.54-0.72l0.73-0.54l0.72-0.54l0.87-0.36l0.87-0.36l0.02-51.5l0.03-51.5l-0.87-0.34l-0.87-0.34
	l-0.78-0.62l-0.78-0.62l-0.52-0.7l-0.52-0.7l-0.36-0.86l-0.36-0.86l-44.54-0.03l-44.54-0.03l-0.08,56.45l-0.08,56.45l0.07,0.11
	l0.07,0.11L364.11,296.44L364.11,296.44z M116.79,180h44.19v-3.89v-3.89l-1.18-0.48l-1.18-0.48l-0.93-0.71l-0.93-0.71l-0.76-0.99
	l-0.76-0.99l-0.45-1.13l-0.45-1.13h-43.4h-43.4l0.03,4.67l0.02,4.67l0.84,0.35l0.84,0.35l0.75,0.56l0.75,0.56l0.55,0.73l0.55,0.73
	l0.16,0.41c0.09,0.22,0.26,0.62,0.37,0.89L72.6,180L116.79,180L116.79,180z M170.55,180h5.01l0.38-0.91l0.38-0.91l0.55-0.7l0.55-0.7
	l0.72-0.56l0.72-0.56l0.9-0.37l0.9-0.37v-4.65v-4.65h-4.24h-4.24l-0.47,1.16l-0.47,1.16l-0.72,0.95l-0.72,0.95l-1,0.77l-1,0.77
	l-1.12,0.45l-1.12,0.45v3.88V180H170.55L170.55,180z M240.6,179.97l51.49-0.03l0.38-0.89l0.38-0.89l0.54-0.71l0.54-0.71l0.73-0.55
	l0.73-0.55l0.84-0.35l0.84-0.35l0.02-4.67l0.03-4.67h-56.56H184v4.65v4.65l0.93,0.39l0.93,0.39l0.69,0.54l0.69,0.54l0.54,0.69
	l0.54,0.69l0.39,0.93l0.39,0.93L240.6,179.97L240.6,179.97z M310.28,179.97l4.64-0.03v-3.85v-3.85l-1.14-0.48l-1.14-0.48l-0.97-0.74
	l-0.97-0.74l-0.73-0.96l-0.73-0.96l-0.46-1.12l-0.46-1.12l-3.88-0.03l-3.87-0.03v4.66v4.66l0.88,0.37l0.88,0.37l0.74,0.57l0.74,0.57
	l0.54,0.72l0.54,0.72l0.16,0.41c0.09,0.22,0.26,0.62,0.37,0.89l0.21,0.48L310.28,179.97L310.28,179.97z M364.09,179.97l44.55-0.03
	l0.35-0.86l0.35-0.86l0.57-0.75l0.57-0.75l0.76-0.56l0.76-0.56l0.83-0.34l0.83-0.34v-4.65v-4.65h-43.77h-43.77l-0.32,0.79
	c-0.18,0.43-0.4,0.97-0.5,1.19l-0.18,0.41l-0.73,0.95l-0.73,0.94l-0.98,0.73l-0.98,0.73l-1.09,0.44l-1.09,0.44v3.89V180
	L364.09,179.97L364.09,179.97z M59.89,177.86l0.12,0.01l0.46-0.6l0.46-0.6l0.71-0.53l0.71-0.53l0.84-0.34l0.84-0.34l0.02-4.68
	l0.03-4.68H43.77H23.47l0.06,0.06c0.03,0.03,8.2,2.79,18.15,6.13C51.63,175.13,59.82,177.86,59.89,177.86L59.89,177.86z
	 M421.24,177.87c0.01,0,8.11-2.74,17.98-6.1c9.87-3.35,17.97-6.11,17.99-6.14c0.03-0.02-8.98-0.04-20.01-0.04h-20.05v4.66v4.66
	l0.84,0.33l0.84,0.33l0.77,0.58l0.77,0.58l0.43,0.57C421.02,177.62,421.22,177.87,421.24,177.87L421.24,177.87z M41.15,161.03h22.93
	v-44.57V71.9l-0.85-0.34l-0.85-0.34l-0.74-0.57l-0.74-0.57l-0.57-0.75l-0.58-0.75l-0.32-0.82l-0.32-0.82l-0.11-0.89l-0.11-0.89
	l0.11-0.99l0.11-0.99l0.32-0.74c0.17-0.41,0.32-0.76,0.32-0.77c0-0.02-10.23-9.99-22.74-22.17L14.25,17.35l-0.42,0.21
	c-0.23,0.11-0.78,0.33-1.23,0.48c-0.45,0.15-0.87,0.33-0.95,0.4l-0.14,0.12l0.08,67.93l0.07,67.93l1.13,0.47l1.13,0.47l0.96,0.74
	l0.96,0.74l0.73,0.95l0.73,0.95l0.37,0.89c0.2,0.49,0.41,1,0.46,1.14l0.1,0.25L41.15,161.03L41.15,161.03z M110.94,161.03h43.4
	l0.45-1.13l0.45-1.13l0.76-0.99l0.76-0.99l0.96-0.74l0.96-0.74l1.12-0.47l1.12-0.47l0.02-43.75l0.02-43.75h-44.23H72.5v0.14
	c0,0.08-0.16,0.51-0.35,0.97l-0.35,0.82l-0.54,0.71l-0.54,0.71l-0.76,0.54l-0.76,0.54l-0.81,0.31l-0.81,0.31l-0.02,44.55
	l-0.03,44.55L110.94,161.03L110.94,161.03z M176.41,161.03h4.24l-0.02-44.56l-0.03-44.56l-0.78-0.31l-0.78-0.31l-0.8-0.59l-0.8-0.59
	l-0.56-0.73l-0.56-0.73l-0.36-0.86l-0.36-0.86l-5.03-0.03l-5.03-0.03v43.75v43.75l1.13,0.46l1.13,0.46l0.99,0.76l0.99,0.76
	l0.72,0.94l0.72,0.94l0.47,1.17l0.47,1.17L176.41,161.03L176.41,161.03z M240.61,161.03h56.51v-44.57V71.89l-0.81-0.3l-0.82-0.3
	l-0.73-0.56l-0.73-0.56l-0.62-0.81l-0.62-0.81l-0.33-0.84l-0.33-0.84l-51.54,0.03l-51.54,0.03l-0.35,0.85l-0.35,0.85l-0.62,0.8
	l-0.62,0.8l-0.68,0.51l-0.68,0.51l-0.84,0.34l-0.84,0.34l-0.02,44.42c-0.01,24.43,0,44.48,0.02,44.55l0.05,0.13L240.61,161.03
	L240.61,161.03z M304.44,161.01l3.87-0.03l0.47-1.13l0.47-1.13l0.73-0.96l0.73-0.96l0.96-0.73l0.96-0.73l1.15-0.48l1.15-0.48
	l0.02-43.75l0.03-43.75h-4.69h-4.69l-0.34,0.84l-0.34,0.84l-0.52,0.7l-0.52,0.7l-0.82,0.65l-0.82,0.65l-0.84,0.33l-0.84,0.33v44.56
	v44.56L304.44,161.01L304.44,161.01z M369.93,161.03h43.76l-0.03-44.56l-0.02-44.56l-0.84-0.33l-0.84-0.33l-0.73-0.53l-0.73-0.53
	l-0.54-0.7l-0.54-0.7l-0.34-0.84c-0.19-0.46-0.37-0.92-0.4-1.03l-0.06-0.19l-19.65,0.07c-10.8,0.04-30.85,0.07-44.53,0.07h-24.89
	v43.75v43.75l1.04,0.4l1.04,0.4l1.07,0.81l1.07,0.81l0.7,0.92l0.7,0.92l0.5,1.2l0.5,1.2L369.93,161.03L369.93,161.03z
	 M439.73,161.01l22.58-0.03l0.48-1.14l0.48-1.14l0.73-0.96l0.73-0.96l0.95-0.73l0.95-0.73l1.15-0.47l1.15-0.47V86.36V18.35
	l-1.14-0.42c-0.63-0.23-1.2-0.47-1.27-0.53l-0.13-0.11l-20.23,19.94c-11.13,10.97-21.24,20.94-22.46,22.16l-2.22,2.22l0.33,0.74
	l0.33,0.74l0.12,1l0.12,1l-0.12,0.94l-0.12,0.94l-0.35,0.83l-0.35,0.83l-0.53,0.7l-0.53,0.7l-0.72,0.55l-0.72,0.55l-0.88,0.37
	l-0.88,0.37v44.57v44.57L439.73,161.01L439.73,161.01z M116.76,63.43h44.21V40.87V18.3l-0.99-0.38l-0.99-0.38l-1.12-0.84l-1.12-0.84
	l-0.72-0.95l-0.72-0.95l-0.49-1.16l-0.49-1.16H86.31H18.3l-0.12,0.46c-0.07,0.25-0.29,0.83-0.48,1.28l-0.36,0.82l22.43,22.44
	L62.2,59.07l1.06-0.41l1.06-0.41h1.34h1.34l0.65,0.22c0.36,0.12,0.92,0.35,1.26,0.51l0.61,0.3l0.63,0.51l0.63,0.51l0.55,0.73
	l0.55,0.73l0.34,0.84l0.34,0.84L116.76,63.43L116.76,63.43z M170.57,63.41l5.03-0.03l0.34-0.85l0.34-0.85l0.62-0.82l0.62-0.82
	l0.44-0.33c0.24-0.18,0.44-0.37,0.44-0.42c0-0.05-2.88-8.25-6.4-18.23s-6.42-18.16-6.44-18.19c-0.02-0.03-0.05,9.09-0.05,20.26
	v20.31L170.57,63.41L170.57,63.41z M240.59,63.43h51.52l0.35-0.89l0.35-0.89l0.55-0.72l0.55-0.72l0.81-0.62l0.81-0.62l0.81-0.33
	l0.81-0.33l1.07-0.11l1.06-0.11l6.52-20.44c3.58-11.24,6.52-20.45,6.52-20.47c0-0.01-0.34-0.28-0.76-0.6l-0.76-0.57l-0.72-0.95
	l-0.72-0.95l-0.53-1.25l-0.53-1.25l-68.07-0.03l-68.07-0.03l-0.53,1.29l-0.53,1.29l-0.79,0.99l-0.79,0.99l-0.63,0.47l-0.63,0.47v0.1
	c0,0.06,3.04,9.29,6.76,20.52l6.76,20.42l1.13,0.1l1.12,0.1l0.82,0.35l0.82,0.35l0.77,0.58l0.77,0.58l0.56,0.73l0.56,0.73l0.28,0.66
	c0.15,0.36,0.32,0.76,0.36,0.89l0.09,0.23L240.59,63.43L240.59,63.43z M310.31,63.43h4.67V43.38V23.32l-0.09,0.1
	c-0.05,0.05-2.81,8.11-6.14,17.9c-3.33,9.79-6.05,17.86-6.05,17.92v0.11l0.42,0.29l0.42,0.29l0.61,0.76l0.61,0.76l0.23,0.51
	c0.12,0.28,0.32,0.72,0.43,0.99l0.21,0.48L310.31,63.43L310.31,63.43z M364.1,63.41l44.56-0.03l0.36-0.87l0.36-0.87l0.55-0.72
	l0.55-0.72l0.76-0.58l0.76-0.58l1.02-0.41l1.03-0.41h1.47h1.47l0.95,0.38c0.52,0.21,0.99,0.38,1.03,0.38
	c0.05,0,9.55-9.6,21.12-21.34c11.57-11.73,21.5-21.82,22.08-22.4l1.04-1.07l-0.46-1.1c-0.25-0.6-0.46-1.18-0.46-1.28v-0.19h-68.06
	h-68.06l-0.48,1.16l-0.48,1.16l-0.6,0.79c-0.33,0.43-0.7,0.9-0.82,1.03c-0.12,0.13-0.66,0.58-1.21,0.99l-0.99,0.75l-0.99,0.38
	l-0.99,0.38l-0.02,22.59l-0.03,22.59L364.1,63.41L364.1,63.41z"/>
<circle class="st1" cx="317.55" cy="163.03" r="12.68"/>
<line class="st1" x1="319.6" y1="18.25" x2="317.81" y2="480.47"/>
</svg>
