<?xml version="1.0" encoding="utf-8"?>
<!-- Generator: Adobe Illustrator 24.1.2, SVG Export Plug-In . SVG Version: 6.00 Build 0)  -->
<svg version="1.1" id="Layer_1" xmlns="http://www.w3.org/2000/svg" xmlns:xlink="http://www.w3.org/1999/xlink" x="0px" y="0px"
	 viewBox="0 0 480.5 480.5" style="enable-background:new 0 0 480.5 480.5;" xml:space="preserve">
<style type="text/css">
	.st0{fill:#ED1C24;}
	.st1{fill:none;}
	.st2{fill:#FFFFFF;stroke:#000000;stroke-miterlimit:10;}
	.st3{fill:#FFFFFF;}
</style>
<g>
	<path id="path3426" d="M11.4,479.1c-0.4,0-1.1,0-1.7,0H8.9l-1.1-0.4l-1.1-0.4l-1.1-0.8l-1.1-0.8l-0.7-1l-0.7-1l-0.4-1.1l-0.4-1.1
		l-0.1-1.1L2,470.2l0.1-1.4l0.1-1.4l0.4-1.1l0.4-1.1l0.7-1l0.7-1l1-0.7l1-0.7l1-0.4c0.6-0.3,1-0.4,1.1-0.4h0.1v-67.6v-67.6l-1.1-0.4
		L6.4,325l-1-0.7l-1-0.7l-0.7-1l-0.7-1l-0.4-1.1l-0.4-1.1l-0.1-1.3L2,316.9l0.1-1.1l0.1-1.1l0.4-1.1l0.4-1.1l0.8-1l0.8-1l1-0.7
		l1-0.7l1.1-0.4l1.1-0.4v-67.6v-67.9l-1.1-0.4L6.7,172l-1-0.7l-1-0.7l-0.7-1l-0.7-1l-0.4-1.1l-0.4-1.1l-0.1-1.3l-0.1-1.3l0.1-1.1
		l0.1-1.1l0.4-1.1l0.4-1.1l0.7-1l0.7-1l1-0.7l1-0.7l1.1-0.4l1.1-0.4v-0.1c0-0.1,0-30.5,0-67.6V20.1l-1.1-0.4l-1.1-0.4l-1.1-1.1
		l-1-0.7l-0.7-1l-0.7-1l-0.4-1.1l-0.4-1.1L2.2,12L2,10.6l0.1-1.3l0.1-1.3L2.7,7l0.4-1.1l0.7-1l0.7-1l1.1-0.7l1.1-0.7l1.1-0.4
		l1.1-0.4l0.8-0.1l0.8-0.1l1.1,0.1l1.1,0.1l1.3,0.6l1.3,0.6l1,0.8l1,0.8l0.7,1l0.7,1l0.4,1.1l0.4,1.1h67.6h67.6l0.6-1.3l0.6-1.3
		l0.7-1l0.7-1l1-0.7l1-0.7l1.1-0.4l1.1-0.4l0.7-0.1c0.4,0,1-0.1,1.4-0.1s1,0,1.4,0.1l0.7,0.1l1.1,0.4l1.1,0.4l1,0.8l1,0.8l0.7,1
		l0.7,1l0.4,1.1l0.4,1.1h67.6h67.6l0.6-1.3l0.6-1.3l0.7-1l0.7-1l1-0.7l2.1-0.7l1.4-0.6l1.4-0.6h1.8h1.8l1.3,0.6l1.3,0.6l0.8,0.7
		l0.8,0.7l0.7,1l0.7,1l0.6,1.3l0.6,1.3h67.6H461l0.4-1.1l0.4-1.1l0.7-1l0.7-1l1.1-0.8l1.1-0.8l1.1-0.4l1.1-0.4l0.7-0.1l0.7-0.1h1.1
		h1.1l0.6,0.1c0.3,0.1,1,0.3,1.4,0.4l0.8,0.3l1,0.7l1,0.7l0.7,1l0.7,1l0.4,1.1l0.4,1.1l0.1,1.1l0.1,1.1l-0.1,1.4l-0.1,1.4l-0.4,1.1
		l-0.4,1.1l-0.7,0.8L476,17l-0.6,0.4c-0.3,0.3-0.8,0.6-1.1,0.8l-0.6,0.4l-1,0.4l-1,0.4v67.6v67.6l1.1,0.4l1.1,0.4l0.8,0.7l0.8,0.7
		l0.7,1l0.7,1l0.4,1l0.4,1l0.1,1.3l0.1,1.3l-0.1,1.3l-0.1,1.3l-0.4,1.1l-0.4,1.1l-0.7,1l-0.7,1l-1,0.7l-1,0.7l-1.1,0.4l-1.1,0.4
		v67.6c0,37.2,0,67.6,0,67.6v0.1l1.1,0.4l1.1,0.4l0.8,0.6c0.4,0.3,0.8,0.7,1,0.8c0.1,0.1,0.6,0.6,0.8,1.1l0.7,0.8l0.6,1.1l0.6,1.1
		l0.1,1.3l0.1,1.3l-0.1,1.1l-0.1,1.1l-0.4,1.1l-0.4,1.1l-0.7,1l-0.7,1l-1,0.7l-1,0.7l-1.3,0.4l-1.3,0.4v67.6v67.6l1.1,0.4l1.1,0.4
		l1,0.7l1,0.7l0.7,1l0.7,1l0.4,1.1l0.4,1.1l0.1,1.3l0.1,1.3l-0.1,1.1l-0.1,1.1l-0.4,1.1l-0.4,1.1l-0.7,0.8l-0.7,0.8l-1.1,0.8
		l-1.1,0.8l-1.3,0.6L471,478h-1.3h-1.3l-0.7-0.1l-0.7-0.1l-1.1-0.4l-1.1-0.4l-1-0.8l-1-0.8l-0.7-1l-0.7-1l-0.6-1.1l-0.6-1.1h-66.9
		h-67.6l-0.1,0.3c0,0.1-0.3,0.7-0.6,1.4l-0.4,1.1l-0.7,0.8l-0.7,0.8l-0.8,0.7c-0.4,0.3-1,0.7-1.3,0.8c-0.1,0.1-0.8,0.4-1.4,0.6
		l-1.1,0.4h-1.1h-1.1l-0.7-0.1l-0.7-0.1l-1.3-0.4l-1.3-0.4l-1-0.8l-1-0.8l-0.7-1l-0.7-1l-0.4-1.1l-0.4-1.1h-67.6h-67.6l-0.4,1.1
		l-0.4,1.1l-0.8,1l-0.8,1l-1,0.7l-1,0.7l-1.3,0.4l-1.3,0.4l-0.8,0.1l-0.8,0.1h-1h-1l-0.4-0.1c-0.3,0-0.8-0.3-1.4-0.6l-1-0.4l-1-0.7
		l-1-0.7l-0.7-0.8l-0.7-0.8l-0.6-1.3l-0.6-1.3H87.9H20.1l-0.4,1.1l-0.4,1.1l-0.7,1l-0.7,1c-0.2,0.3-0.5,0.6-0.7,1
		c-0.3,0.3-0.7,0.5-1,0.8c-0.3,0.2-0.7,0.5-1,0.7c-0.3,0.2-0.6,0.3-0.8,0.5c-0.3,0.1-0.6,0.2-0.9,0.3c-0.3,0.1-0.7,0.3-1.2,0.4
		C12,479,11.7,479.1,11.4,479.1z M87.8,467.7h67.4l0.4-1.1l0.4-1.1l0.7-1l0.7-1l1-0.8l1-0.8l1.1-0.4l1.1-0.4v-22.7v-22.7h-43.9H73.9
		l-0.3,0.8l-0.3,0.8l-0.6,0.7l-0.6,0.7l-0.7,0.6l-0.7,0.6l-0.8,0.4l-0.8,0.4l-0.8,0.1l-0.8,0.1h-0.8h-0.7l-1-0.4l-1-0.4l-22.3,22.6
		l-22.3,22.6v0.1c0,0.1,0.3,0.6,0.4,1.1c0.3,0.6,0.4,1.1,0.4,1.1v0.1L87.8,467.7L87.8,467.7z M240.7,467.7h67.6l0.6-1.3l0.6-1.3
		l0.7-1l0.7-1l0.7-0.6l0.7-0.6V462c0-0.1-2.8-8.8-6-19.2c-3.3-10.5-6.3-19.8-6.4-20.5l-0.4-1.4h-1h-1l-1-0.4l-1-0.4l-0.8-0.6
		l-0.8-0.6l-0.6-0.7l-0.6-0.7l-0.4-0.8l-0.4-0.8h-51.1h-51.1l-0.4,1l-0.4,1l-0.6,0.7l-0.6,0.7l-0.8,0.6l-0.8,0.6l-0.8,0.3l-0.8,0.3
		l-1.1,0.1l-1.1,0.1l-6.7,20.6c-3.8,11.3-6.7,20.6-6.7,20.8v0.1l0.7,0.6l0.7,0.6l0.7,0.8l0.7,0.8l0.4,1c0.3,0.6,0.6,1.1,0.6,1.4
		l0.1,0.3L240.7,467.7L240.7,467.7z M393.5,467.7h67.6v-0.1c0-0.1,0.3-0.7,0.6-1.3l0.6-1.1l-20.5-21c-11.3-11.6-21.2-21.7-22-22.6
		l-1.5-1.5l-1,0.4l-1,0.4h-1.5h-1.5l-1-0.4l-1-0.4l-0.7-0.6l-0.7-0.6l-0.6-0.7l-0.6-0.7l-0.4-1l-0.4-1h-44.3h-44.3v22.7V461l0.1,0.1
		l0.1,0.1l1,0.4l1,0.4l1,0.8l1,0.8l0.7,1l0.7,1l0.3,0.8c0.1,0.4,0.4,1,0.4,1.1l0.1,0.3L393.5,467.7L393.5,467.7z M16,461.8
		c0,0,10.2-10,22.7-22.3l22.6-22.3v-0.1c0,0-0.1-0.4-0.3-0.8l-0.3-0.7l-0.1-1l-0.1-1l0.1-0.8l0.1-0.8l0.3-0.8l0.3-0.8l0.6-0.7
		l0.6-0.7l0.7-0.6l0.7-0.6l0.8-0.4l0.8-0.4v-15.2c0-8.4,0-28.1,0-43.9v-28.7H42.8H20.1l-0.1,0.1c0,0-0.3,0.6-0.6,1.1l-0.4,1l-0.7,1
		l-0.7,1l-1,0.7l-1,0.7l-1.1,0.4l-1.1,0.4v67.6v67.6l1.1,0.6c0.6,0.1,1.1,0.4,1.3,0.6C15.9,461.8,16,461.8,16,461.8L16,461.8z
		 M465.3,462c0,0,0.1,0,0.1-0.1c0,0,0.6-0.3,1.1-0.4l1.1-0.4v-67.6v-67.6l-1.1-0.4l-1.1-0.4l-1-0.7l-1-0.7l-0.7-1l-0.7-1l-0.4-1.1
		l-0.4-1.1H439h-22.3l-0.1,0.1l-0.1,0.1v43.8v43.8l1,0.4l1,0.4l0.7,0.6l0.7,0.6l0.6,0.7l0.6,0.7l0.4,0.8l0.4,0.8l0.1,1l0.1,1l-0.1,1
		l-0.1,1l-0.3,0.7l-0.3,0.7l22.3,22.3L465.3,462L465.3,462L465.3,462z M166.4,456.2c0,0,2.9-8.2,6.4-18.3s6.3-18.3,6.4-18.3v-0.1
		l-0.4-0.3l-0.4-0.3l-0.6-0.8l-0.6-0.8l-0.4-0.8l-0.4-0.8h-5h-5v20.5V456.2L166.4,456.2L166.4,456.2z M314.8,455.7L314.8,455.7
		v-20.2v-20.2h-4.6h-4.6l-0.4,0.8l-0.4,0.8l-0.6,0.7l-0.6,0.7l-0.6,0.4l-0.6,0.4l4.7,14.1c2.6,7.8,5.3,15.9,6,18.1L314.8,455.7
		L314.8,455.7L314.8,455.7z M256.1,412.1h36.1l0.4-0.8l0.4-0.8l0.6-0.7l0.6-0.7l0.7-0.6l0.7-0.6l0.8-0.3l0.8-0.3v-43.9v-43.9h-56.2
		h-56.2v43.9v43.9l0.8,0.3l0.8,0.3l0.7,0.6l0.7,0.6l0.6,0.8l0.6,0.8l0.3,0.8l0.3,0.8h15.2C213.2,412.1,236.2,412.1,256.1,412.1
		L256.1,412.1z M310.2,412.1h4.6V369v-43.1l-1.1-0.4l-1.1-0.4l-1-0.7l-1-0.7l-0.7-1l-0.7-1l-0.4-1.1c-0.3-0.6-0.6-1.1-0.6-1.1
		l-0.1-0.1h-3.8h-3.8v43.9v43.9l0.8,0.3l0.8,0.3l0.7,0.6l0.7,0.6l0.6,0.7l0.6,0.7l0.3,0.6c0.1,0.3,0.3,0.7,0.4,0.8l0.1,0.3
		L310.2,412.1L310.2,412.1z M363.7,412.1h44.2v-0.1c0,0,0.1-0.6,0.4-1l0.4-0.8l0.6-0.7l0.6-0.7l0.7-0.6l0.7-0.6l0.8-0.4l0.8-0.4
		v-43.9V319h-43.3h-43.3l-0.1,0.1c0,0-0.3,0.6-0.6,1.1l-0.4,1.1l-0.7,1l-0.7,1l-1,0.7l-1,0.7l-0.8,0.3c-0.4,0.1-1,0.4-1.1,0.6
		l-0.3,0.1v43.1v43.1l0,0l0,0L363.7,412.1L363.7,412.1z M117.9,411.9h43.9v-43.1v-43.1l-1.1-0.4l-1.1-0.4l-1-0.7l-1-0.7l-0.7-1
		l-0.7-1l-0.6-1.3l-0.6-1.3h-43.1H69V363v43.9l0.8,0.3l0.8,0.3l0.7,0.6l0.7,0.6l0.6,0.7l0.6,0.7l0.3,0.7c0.1,0.4,0.3,0.8,0.4,1v0.1
		L117.9,411.9L117.9,411.9z M171.4,411.9h5l0.4-0.8l0.4-0.8l0.6-0.7l0.6-0.7l0.7-0.6l0.7-0.6l0.8-0.3l0.8-0.3v-43.9v-43.9h-4.2h-4.2
		l-0.6,1.3l-0.6,1.3l-0.7,0.8l-0.7,0.8l-1,0.7l-1,0.7l-1.1,0.4l-1.1,0.4v43.1v43.1L171.4,411.9L171.4,411.9z M45.2,314.7h20.3v-5v-5
		l-0.8-0.3l-0.8-0.3l-0.7-0.6l-0.7-0.6l-0.4-0.6c-0.1-0.3-0.4-0.6-0.4-0.6s-8.2,2.8-18.1,6.3s-18.1,6.3-18.3,6.4H25v0.1v0.1h20.2
		V314.7z M112.2,314.7h43.1l0.4-1.1l0.4-1.1l0.7-1l0.7-1l1-0.7l1-0.7l1.1-0.4l1.1-0.4v-4.2v-4.2h-43.9H73.9l-0.4,0.8l-0.4,0.8
		l-0.6,0.7l-0.6,0.7l-0.7,0.6l-0.7,0.6l-0.8,0.3l-0.8,0.3v5v5l0,0l0,0L112.2,314.7L112.2,314.7z M177.1,314.7h4.2v-5v-5l-0.8-0.4
		l-0.8-0.4l-0.7-0.6l-0.7-0.6l-0.6-0.7l-0.6-0.7l-0.3-0.8l-0.3-0.8h-5h-5v4.2v4.2l1.1,0.4l1.1,0.4l1,0.7l1,0.7l0.7,1l0.7,1l0.3,0.7
		c0.1,0.4,0.4,1,0.6,1.1l0.1,0.4L177.1,314.7L177.1,314.7z M240.9,314.7h56.2v-5v-5l-0.8-0.3l-0.8-0.3l-0.7-0.6L294,303l-0.6-0.7
		l-0.6-0.7l-0.3-0.8l-0.3-0.8h-51.1h-51.1l-0.3,0.8l-0.3,0.8l-0.6,0.7l-0.6,0.7l-0.7,0.6l-0.7,0.6l-0.8,0.4l-0.8,0.4v4.9
		c0,2.6,0,4.9,0,5v0.1L240.9,314.7L240.9,314.7z M304.3,314.7h3.9l0.4-1.1l0.4-1.1l0.7-0.8c0.4-0.4,0.7-1,0.8-1.1
		c0.1-0.1,0.6-0.4,1-0.8l0.8-0.6l1.1-0.4l1.1-0.4v-4.2v-4.2h-4.6h-4.6l-0.3,0.8l-0.3,0.8l-0.6,0.7l-0.6,0.7l-0.7,0.6l-0.7,0.6
		l-0.8,0.3l-0.8,0.3v5v5L304.3,314.7L304.3,314.7z M369.4,314.7h43.5v-5v-5l-0.8-0.4l-0.8-0.4l-0.7-0.6l-0.7-0.6l-0.6-0.7l-0.6-0.7
		l-0.4-0.8l-0.4-0.8h-44.3h-44.3v4v4l0.1,0.1l0.1,0.1l1.1,0.4l1.1,0.4l1,0.7l1,0.7l0.7,1l0.7,1l0.4,1.1l0.4,1.1L369.4,314.7
		L369.4,314.7z M436.5,314.7h20.1v-0.1v-0.1l-18-6.3c-9.9-3.5-18.1-6.4-18.1-6.4h-0.1l-0.4,0.6l-0.4,0.6l-0.7,0.6l-0.7,0.6l-0.8,0.3
		c-0.4,0.1-0.8,0.4-0.8,0.4l-0.1,0.1v4.9v4.9l0,0l0,0L436.5,314.7L436.5,314.7z M19.1,312c0,0,9.3-3.1,20.8-6.8l20.6-6.7v-0.4
		c0-0.1,0-0.7,0.1-1.1l0.1-0.7l0.3-0.8l0.3-0.8l0.6-0.7l0.6-0.7l0.7-0.6l0.7-0.6l0.8-0.3l0.8-0.3v-51.1v-51.1l-0.8-0.4l-0.8-0.4
		l-0.7-0.6l-0.7-0.6l-0.6-0.7l-0.6-0.7l-0.3-0.8l-0.3-0.8l-0.1-1.1l-0.1-1.1l-20.6-6.4c-11.3-3.6-20.6-6.4-20.8-6.4H19l-0.7,0.8
		l-0.7,0.8l-1,0.7l-1,0.7l-1.1,0.4l-1.1,0.4v67.6v67.6l1.1,0.4l1.1,0.4l1,0.7l1,0.7l0.7,0.8L19.1,312L19.1,312L19.1,312z M462.2,312
		c0,0,0.4-0.3,0.7-0.8l0.7-0.8l0.8-0.7l0.8-0.7l1.1-0.4l1.1-0.4v-41.5c0-22.9,0-53.2,0-67.6v-26.1l-1.3-0.4l-1.3-0.4l-0.8-0.7
		l-0.8-0.7l-0.7-0.8c-0.4-0.4-0.7-0.8-0.7-0.8s-9.2,2.9-20.3,6.4l-20.3,6.4v0.4c0,0.3,0,0.8-0.1,1.3l-0.1,0.7l-0.3,0.7l-0.3,0.7
		l-0.6,0.7l-0.6,0.7l-0.7,0.6l-0.7,0.6l-0.8,0.3c-0.4,0.1-0.8,0.4-0.8,0.4l0,0V240v51.1l0.8,0.4l0.8,0.4l0.7,0.6l0.7,0.6l0.6,0.7
		l0.6,0.7l0.4,0.8l0.4,0.8l0.1,1.1l0.1,1.1l15,5c8.2,2.8,17.4,5.7,20.3,6.7C459.9,311.2,462.2,312,462.2,312L462.2,312z
		 M117.9,296.3h43.9v-56.2V184h-43.9H74l-0.3,0.8l-0.3,0.8l-0.6,0.7l-0.6,0.7l-0.7,0.6l-0.7,0.6l-0.8,0.3l-0.8,0.3v51.1V291l0.8,0.3
		l0.8,0.3l0.7,0.6l0.7,0.6l0.6,0.7l0.6,0.7l0.1,0.4c0.1,0.3,0.3,0.6,0.4,0.8l0.1,0.4L117.9,296.3L117.9,296.3z M171.4,296.3h5
		l0.4-0.8l0.4-0.8l0.6-0.7l0.6-0.7l0.7-0.6l0.7-0.6l0.8-0.4l0.8-0.4v-51.1V189l-1-0.4l-1-0.4l-0.7-0.6l-0.7-0.6l-0.6-0.7l-0.6-0.7
		l-0.4-0.8l-0.4-0.8h-5h-4.7v56.2v56.2H171.4L171.4,296.3z M240.9,296.3h51.1l0.3-0.8l0.3-0.8l0.6-0.7l0.6-0.7l0.7-0.6l0.7-0.6
		l0.8-0.3l0.8-0.3v-51.1v-51.1l-0.8-0.4l-0.8-0.4l-0.7-0.6l-0.7-0.6l-0.4-0.7l-0.4-0.7l-0.4-1l-0.4-1h-51.1h-51.1l-0.4,1l-0.4,1
		l-0.6,0.7l-0.6,0.7l-0.7,0.6l-0.7,0.6l-1,0.4l-1,0.4v51.1v51.1l0.8,0.4l0.8,0.4l0.7,0.6l0.7,0.6l0.6,0.7l0.6,0.7l0.3,0.7
		c0.1,0.3,0.3,0.7,0.3,0.8l0.1,0.3L240.9,296.3z M310.2,296.3h4.6v-56.2V184h-4.6h-4.6l-0.4,0.8l-0.4,0.8l-0.6,0.7l-0.6,0.7
		l-0.7,0.6l-0.7,0.6l-0.8,0.3l-0.8,0.3v51.1V291l0.8,0.3l0.8,0.3l0.7,0.6l0.7,0.6l0.6,0.7l0.6,0.7l0.3,0.8l0.3,0.8L310.2,296.3
		L310.2,296.3z M363.7,296.3H408l0.4-0.8l0.4-0.8l0.6-0.7l0.6-0.7l0.7-0.6l0.7-0.6l0.8-0.4l0.8-0.4v-51.1V189l-0.8-0.3l-0.8-0.3
		l-0.8-0.6l-0.8-0.6l-0.6-0.7l-0.6-0.7l-0.4-0.8l-0.4-0.8h-44.3h-44.3l-0.1,56l-0.1,56v0.1v0.1L363.7,296.3L363.7,296.3z
		 M117.9,180.6h43.9v-3.9v-3.9l-1.1-0.4l-1.1-0.4l-1-0.7l-1-0.7l-0.7-1l-0.7-1l-0.4-1.1l-0.4-1.1h-43.1H69.3v4.6v4.6l0.8,0.3
		l0.8,0.3l0.7,0.6l0.7,0.6l0.6,0.7l0.6,0.7l0.1,0.4c0.1,0.3,0.3,0.6,0.4,0.8l0.1,0.4h43.8V180.6z M171.4,180.6h5l0.4-0.8l0.4-0.8
		l0.6-0.7l0.6-0.7l0.7-0.6l0.7-0.6l0.8-0.4l0.8-0.4V171v-4.6h-4.2h-4.2l-0.4,1.1l-0.4,1.1l-0.7,1l-0.7,1l-1,0.7l-1,0.7l-1.1,0.4
		l-1.1,0.4v3.9v3.8h4.7V180.6z M240.9,180.5h51.1l0.4-0.8l0.4-0.8l0.6-0.7l0.6-0.7l0.7-0.6l0.7-0.6l0.8-0.3l0.8-0.3v-4.6v-4.6h-56.2
		h-56.2v4.6v4.6l1,0.4l1,0.4l0.7,0.6l0.7,0.6l0.6,0.7l0.6,0.7l0.4,1l0.4,1L240.9,180.5L240.9,180.5z M310.2,180.5h4.6v-3.8v-3.9
		l-1.1-0.4l-1.1-0.4l-1-0.7l-1-0.7l-0.7-1l-0.7-1l-0.4-1.1l-0.4-1.1h-3.9h-3.9v4.6v4.6l0.8,0.4l0.8,0.4l0.7,0.6l0.7,0.6l0.6,0.7
		l0.6,0.7l0.1,0.4c0.1,0.3,0.3,0.6,0.4,0.8l0.1,0.4L310.2,180.5L310.2,180.5z M363.6,180.5h44.3l0.3-0.8l0.3-0.8l0.6-0.7l0.6-0.7
		l0.7-0.6l0.7-0.6l0.8-0.3l0.8-0.3v-4.6v-4.6h-43.5h-43.5l-0.3,0.8c-0.1,0.4-0.4,1-0.6,1.1l-0.1,0.4l-0.7,1l-0.7,1l-1,0.7l-1,0.7
		l-1.1,0.4l-1.1,0.4v3.9v3.9L363.6,180.5L363.6,180.5z M61.5,178.4L61.5,178.4l0.6-0.6l0.4-0.6l0.7-0.6l0.7-0.6l0.8-0.3l0.8-0.3V171
		v-4.6H45.3H25.2l0,0c0,0,8.1,2.8,18,6.1C53.2,175.7,61.3,178.4,61.5,178.4L61.5,178.4z M420.4,178.5c0,0,8.1-2.8,17.8-6
		c9.8-3.3,17.8-6.1,17.8-6.1s-8.9,0-19.9,0h-19.9v4.6v4.6l0.8,0.3l0.8,0.3l0.7,0.6l0.7,0.6l0.4,0.6
		C420.1,178.2,420.4,178.5,420.4,178.5L420.4,178.5z M42.8,161.7h22.7v-44.3V73l-0.8-0.3l-0.8-0.3l-0.7-0.6l-0.7-0.6l-0.6-0.7
		L61.3,70l-0.3-0.8l-0.3-0.8l-0.1-0.8l-0.1-0.8l0.1-1l0.1-1l0.3-0.7c0.1-0.4,0.3-0.7,0.3-0.7s-10.2-9.9-22.6-22L16,19l-0.4,0.1
		c-0.3,0.1-0.8,0.3-1.3,0.4c-0.4,0.1-0.8,0.3-1,0.4l-0.1,0.1l0.1,67.4V155l1.1,0.4l1.1,0.4l1,0.7l1,0.7l0.7,1l0.7,1l0.4,0.8
		c0.1,0.4,0.4,1,0.4,1.1l0.3,0.6H42.8L42.8,161.7z M112.2,161.7h43.1l0.4-1.1l0.4-1.1l0.7-1l0.7-1l1-0.7l1-0.7l1.1-0.4l1.1-0.4
		v-43.5V68.3h-43.9H73.9v0.1c0,0.1-0.1,0.6-0.3,1l-0.3,0.8l-0.6,0.7l-0.6,0.7l-0.7,0.6l-0.7,0.6L70,73l-0.8,0.3v44.3v44.3
		L112.2,161.7L112.2,161.7z M177.1,161.7h4.2v-44.3V73l-0.8-0.3l-0.8-0.3l-0.8-0.6l-0.8-0.6l-0.6-0.7l-0.6-0.7l-0.4-0.8l-0.4-0.8h-5
		h-5v43.5v43.5l1.1,0.4l1.1,0.4l1,0.7l1,0.7l0.7,1l0.7,1l0.4,1.1l0.4,1.1H177.1L177.1,161.7z M240.9,161.7h56.2v-44.3V73l-0.8-0.3
		l-0.8-0.3l-0.7-0.6l-0.7-0.6l-0.6-0.8l-0.6-0.8l-0.3-0.8l-0.3-0.8h-51.1h-51.1l-0.3,0.8l-0.3,0.8l-0.6,0.8l-0.6,0.8l-0.7,0.6
		l-0.7,0.6l-0.8,0.3l-0.8,0.3v44.2c0,24.2,0,44.2,0,44.3v0.1H240.9L240.9,161.7z M304.3,161.7h3.9l0.4-1.1l0.4-1.1l0.7-1l0.7-1
		l1-0.7l1-0.7l1.1-0.4l1.1-0.4v-43.5V68.3h-4.6h-4.6l-0.3,0.8l-0.3,0.8l-0.6,0.7l-0.6,0.7l-0.8,0.7l-0.8,0.7l-0.8,0.3l-0.8,0.3v44.3
		v44.3L304.3,161.7L304.3,161.7z M369.4,161.7h43.5v-44.3V73l-0.8-0.3l-0.8-0.3l-0.7-0.6l-0.7-0.6l-0.6-0.7l-0.6-0.7l-0.3-0.8
		c-0.1-0.4-0.4-1-0.4-1V68h-19.5c-10.7,0-30.7,0-44.2,0h-24.7v43.5V155l1,0.4l1,0.4l1.1,0.8l1.1,0.8l0.7,1l0.7,1l0.6,1.3l0.6,1.3
		L369.4,161.7L369.4,161.7z M438.8,161.7h22.4l0.4-1.1l0.4-1.1l0.7-1l0.7-1l1-0.7l1-0.7l1.1-0.4l1.1-0.4V87.7V19.9l-1.1-0.4
		c-0.6-0.3-1.3-0.4-1.3-0.6l-0.1-0.1l-20.1,19.8c-11,10.9-21,20.8-22.3,22l-2.2,2.2l0.3,0.7l0.3,0.7l0.1,1l0.1,1l-0.1,1l-0.1,1
		l-0.3,0.8l-0.3,0.8l-0.6,0.7l-0.6,0.7l-0.7,0.6l-0.7,0.6l-0.8,0.4l-0.8,0.4v44.3v44.2H438.8L438.8,161.7z M117.9,64.8h43.9V42.4
		V19.9l-1-0.4l-1-0.4l-1.1-0.8l-1.1-0.8l-0.7-1l-0.7-1l-0.4-1.1l-0.4-1.1H87.8H20.1l-0.1,0.4c0,0.3-0.3,0.8-0.4,1.3l-0.4,0.8
		l22.3,22.3l22.3,22.3l1.1-0.4l1.1-0.4h1.4h1.4l0.7,0.3c0.4,0.1,1,0.3,1.3,0.6l0.6,0.3l0.6,0.6l0.6,0.6l0.6,0.7l0.6,0.7l0.3,0.8
		l0.3,0.8L117.9,64.8L117.9,64.8z M171.4,64.7h5l0.3-0.8L177,63l0.6-0.8l0.6-0.8l0.4-0.3c0.3-0.1,0.4-0.4,0.4-0.4s-2.9-8.2-6.4-18.1
		c-3.5-9.9-6.4-18-6.4-18.1c0,0,0,9.1,0,20.1v20.2L171.4,64.7L171.4,64.7z M240.9,64.8h51.1l0.3-0.8l0.3-0.8l0.6-0.7l0.6-0.7
		l0.8-0.6l0.8-0.6l0.8-0.3l0.8-0.3l1.1-0.1l1.1-0.1l6.4-20.3c3.6-11.1,6.4-20.3,6.4-20.3s-0.3-0.3-0.7-0.6l-0.7-0.6l-0.8-1.3l-0.7-1
		l-0.6-1.3l-0.6-1.3h-67.6h-67.6l-0.6,1.3l-0.6,1.3l-0.8,1l-0.8,1l-0.6,0.4l-0.6,0.4v0.1c0,0,3.1,9.2,6.7,20.3l6.7,20.3l1.1,0.1
		l1.1,0.1l0.8,0.3l0.8,0.3l0.7,0.6l0.7,0.6l0.6,0.7l0.6,0.7l0.3,0.7c0.1,0.4,0.3,0.7,0.4,0.8l0.1,0.3L240.9,64.8L240.9,64.8z
		 M310.2,64.8h4.6V44.9V25l-0.1,0.1c0,0-2.8,8.1-6.1,17.8c-3.3,9.8-6,17.7-6,17.8v0.1l0.4,0.3l0.4,0.3l0.6,0.7l0.6,0.7l0.3,0.6
		c0.1,0.3,0.3,0.7,0.4,1l0.1,0.4H310.2L310.2,64.8z M363.7,64.7H408l0.4-0.8l0.4-0.8l0.6-0.7l0.6-0.7l0.7-0.6l0.7-0.6l1-0.4l1-0.4
		h1.4h1.4l1,0.4c0.6,0.1,1,0.4,1,0.4s9.5-9.5,21-21.2C450.5,27.6,460.4,17.6,461,17l1-1.1l-0.4-1.1c-0.3-0.6-0.4-1.1-0.4-1.3v-0.1
		h-67.6h-67.6l-0.4,1.1l-0.4,1.1l-0.6,0.8c-0.3,0.4-0.7,0.8-0.8,1c-0.1,0.1-0.7,0.6-1.3,1l-1,0.7l-1,0.4l-1,0.4v22.4v22.4
		L363.7,64.7L363.7,64.7z"/>
	<circle class="st0" cx="316.9" cy="163.6" r="14.9"/>
</g>
<line class="st1" x1="296.8" y1="82.2" x2="295.6" y2="411.8"/>
<path class="st2" d="M69,69.2"/>
<path class="st3" d="M67,449.5"/>
<path class="st3" d="M426.3,550.3"/>
</svg>
